<svg width="140" height="140" viewBox="0 0 140 140" fill="none" xmlns="http://www.w3.org/2000/svg">
<path d="M124.783 140H15.2174C6.82652 140 0 133.173 0 124.783V15.2174C0 6.82652 6.82652 0 15.2174 0H124.783C133.173 0 140 6.82652 140 15.2174V124.783C140 133.173 133.173 140 124.783 140ZM15.2174 6.08696C10.1835 6.08696 6.08696 10.1835 6.08696 15.2174V124.783C6.08696 129.817 10.1835 133.913 15.2174 133.913H124.783C129.817 133.913 133.913 129.817 133.913 124.783V15.2174C133.913 10.1835 129.817 6.08696 124.783 6.08696H15.2174Z" fill="url(#paint0_linear_31_121)"/>
<path d="M50.5157 53.1665C52.0283 53.3887 52.7739 51.9704 53.8939 51.3191C55.3578 50.2783 54.9713 48.2391 55.6044 46.7478C56.0457 46.6018 56.493 46.4678 56.9404 46.34C56.7091 44.8883 56.1157 43.4913 56.2161 41.997C57.0135 41.4035 57.9478 40.7522 58.2765 39.7783C58.5839 39.6261 58.9004 39.4739 59.2078 39.3096C61.4661 39.2731 63.7244 39.3278 65.9857 39.2974C66.5609 39.3278 66.3478 38.5609 66.4848 38.22C67.057 38.5883 67.7691 38.6339 68.4174 38.4513C69.507 38.0922 70.6665 38.287 71.7926 38.2352C72.5231 38.2535 73.3357 38.0922 73.9413 38.6126C74.8787 38.4513 75.8374 38.4665 76.79 38.4817C76.8052 38.0983 76.8174 37.7178 76.8296 37.3374C76.09 37.3404 75.3504 37.3404 74.6109 37.3526C74.3887 37.2644 74.1604 37.1761 73.9352 37.0878C73.8135 37.1761 73.57 37.3557 73.4483 37.447C71.8109 37.5809 70.1522 37.4744 68.5117 37.4926C68.53 36.9813 68.7857 36.4061 68.3413 35.9891C68.247 36.1048 68.0491 36.327 67.9548 36.4396C67.827 36.2813 67.5683 35.9709 67.4404 35.8126C67.4313 34.9757 67.4313 34.1326 67.4283 33.2926C67.2822 33.2957 66.99 33.3078 66.8409 33.3139C66.8439 34.3822 66.8348 35.4504 66.8409 36.5187C66.6857 36.5187 66.3783 36.5157 66.2261 36.5157C66.2383 36.3148 66.2687 35.9131 66.2839 35.7091C60.4191 35.6513 54.5604 35.7122 48.6926 35.6757C48.6926 35.5418 48.6865 35.277 48.6835 35.1431C48.3244 35.0548 47.9713 34.9665 47.6213 34.8661C47.6183 34.3183 47.6091 33.7583 47.3322 33.2713C47.0917 34.0048 46.9487 34.7657 46.7661 35.5144C45.427 35.42 44.2826 36.3635 42.9313 36.1444C42.8644 35.3652 42.7426 34.5861 42.7426 33.8039C43.3757 33.5939 44.1548 33.5087 44.6022 32.9609C45.2596 31.3387 44.8304 29.5065 44.1517 27.9604C44.1883 27.8722 44.2613 27.6835 44.2978 27.5952C44.2248 27.4613 44.0726 27.1904 43.9996 27.0535C43.047 26.6944 42.1948 26.1404 41.3457 25.5926C40.4326 25.1422 39.3826 24.8135 38.357 24.8713C38.0161 24.8896 37.6752 24.9504 37.3435 25.0661C33.3261 25.7874 31.217 30.9218 32.9791 34.44C32.7661 34.6348 32.5531 34.8357 32.34 35.0304C31.5639 33.9683 30.1883 34.2635 29.0926 34.5252C26.7735 35.3044 25.2852 37.4439 24.5091 39.6657C23.5413 42.2739 23.6235 45.1165 23.9583 47.8374C22.8809 48.3487 21.6635 48.0231 20.5587 48.4065C20.4796 50.5796 20.3396 52.7557 19.9591 54.8983C19.8709 55.5344 19.74 56.1948 19.9744 56.8157C20.9513 57.0439 21.9222 57.2996 22.9174 57.4304C22.3057 57.5431 21.7244 57.7683 21.1765 58.0604C21.1765 58.0604 20.8235 58.2583 20.7474 58.4013C20.4187 61.2348 21.3987 63.9739 21.3165 66.8044C20.0048 66.5274 20.0535 68.0583 19.88 68.9135C20.0626 69.0778 20.2391 69.2483 20.4218 69.4126C20.2483 69.7078 20.1052 70.0122 19.9896 70.3318C20.2178 71.1474 19.9865 72.1061 20.7109 72.7087C20.3274 75.1131 19.8861 77.5113 19.6365 79.9339C19.5331 80.7313 20.0474 81.5257 19.7552 82.3078C19.4813 83.1904 18.8026 83.8844 18.6048 84.8035C17.5518 85.8444 16.9735 87.2352 16.2917 88.5226C15.7135 89.5513 15.8231 90.7596 15.5887 91.8796C14.9587 92.9722 14.0548 94.0374 14.0731 95.3674C14.0609 96.0826 13.9209 96.8983 14.5204 97.4309C14.0396 99.9844 13.2574 102.465 12.6639 104.994C12.5696 105.956 12.5087 107.003 12.9561 107.891C14.8704 108.436 16.8731 108.174 18.8209 108.022C18.9518 107.167 18.9731 106.297 18.547 105.523C17.8531 103.055 18.5287 100.371 19.7552 98.1796C20.8357 97.9818 21.2009 96.9409 21.4565 96.0126C22.0196 93.9552 23.3587 92.1961 23.7878 90.0931C23.8852 89.4326 23.4744 88.7539 23.7513 88.1118C24.0557 87.4148 24.2352 86.5657 24.917 86.1213C25.5409 85.7165 25.8574 85.0257 26.1252 84.3591C26.3291 83.7413 27.1022 83.6317 27.4126 83.09C27.9909 82.0826 27.6987 80.8409 28.2191 79.8091C28.8948 78.2174 29.2357 76.3944 30.5322 75.1526C31.1439 74.6261 31.1074 73.7344 31.6217 73.1531C31.9809 73.8591 32.2791 74.6291 32.8422 75.2074C33.3322 75.4174 33.8831 75.3626 34.4096 75.3991C35.7426 77.3531 37.0635 79.3191 38.3813 81.2822C38.9383 82.1983 40.2013 82.3839 41.1357 81.9913C41.4157 82.457 41.8478 82.8617 41.9757 83.4065C41.8935 84.2465 41.7809 85.0835 41.7352 85.9296C41.2178 86.4165 40.8374 87.0861 40.9744 87.8196C41.1478 89.3231 41.2878 90.8326 41.4065 92.3422C41.5831 93.377 42.1157 94.3387 42.0122 95.4191C42.1552 95.5409 42.4413 95.7813 42.5813 95.9C42.487 97.5557 42.9435 99.2235 42.7031 100.861C41.9574 102.313 41.9239 103.977 41.5131 105.53C42.4748 106.65 43.9996 106.029 45.2504 106.059C46.5439 106.208 47.7309 106.92 49.0609 106.853C50.7865 106.829 52.5304 106.984 54.2378 106.671C54.3535 106.056 54.3961 105.432 54.1557 104.839C53.3735 104.333 52.5244 103.947 51.6357 103.682C50.6922 103.448 50.1657 102.559 49.5448 101.896C48.9726 101.15 48.1296 100.511 48.0261 99.5157C47.877 98.1583 47.9439 96.7765 47.9865 95.4161C48.1996 94.8348 48.6531 94.3357 48.6165 93.6783C48.9209 92.3909 48.1691 91.14 48.4461 89.8587C48.8935 87.0222 49.2435 84.1613 49.1552 81.2852C49.003 81.0691 48.857 80.8561 48.7109 80.6431C48.6652 80.1713 48.6135 79.7057 48.5648 79.24C48.1904 79.0787 47.7674 78.9144 47.6852 78.4639C46.8513 76.1357 45.8957 73.8531 44.8244 71.6252C43.7835 69.6591 42.4322 67.8726 40.9409 66.2261C40.6761 65.45 40.5939 64.6252 40.4022 63.8339C40.5483 63.5387 40.6974 63.2435 40.8496 62.9513C41.5161 63.0426 42.3926 63.6909 42.9496 63.0609C43.5857 62.0931 44.097 61.0035 44.0331 59.8135C44.0239 57.7865 44.5961 55.7809 44.31 53.76C44.1517 52.8317 43.4061 52.1713 42.5022 51.9978C42.6848 51.3435 42.8583 50.6831 42.9709 50.0104C45.3661 51.2431 47.7796 52.9261 50.5157 53.1665ZM50.3513 41.8509C50.5917 41.72 50.8322 41.58 51.0726 41.44C50.5826 40.9196 51.0422 40.5939 51.5078 40.3078C51.8578 40.3048 52.2078 40.3018 52.5578 40.2957C52.7526 40.7552 52.8652 41.2422 52.9109 41.7413C52.8074 41.8478 52.5913 42.0639 52.4878 42.1735C51.9857 43.26 51.2431 44.2857 50.3148 45.0465C50.0104 44.3009 49.6452 43.5796 49.2191 42.8978C49.1217 42.3074 49.9739 42.1431 50.3513 41.8509Z" fill="url(#paint1_linear_31_121)"/>
<path d="M88.4956 62.2756C88.4956 59.1743 85.9786 56.6574 82.8773 56.6574H61.8073C57.9299 56.6574 54.783 59.8043 54.783 63.6817V77.7274C54.783 81.6048 57.9299 84.7517 61.8073 84.7517H82.8773C85.9786 84.7517 88.4956 82.2348 88.4956 79.1335V67.8969H67.4256C67.4256 70.9983 69.9425 73.5152 73.0438 73.5152H81.4712V79.1304H61.8043V62.2756H88.4956Z" fill="url(#paint2_linear_31_121)"/>
<path d="M120.802 56.6543H101.135C97.2575 56.6543 94.1106 59.8013 94.1106 63.6786V77.7243C94.1106 81.6017 97.2575 84.7486 101.135 84.7486H120.802C124.679 84.7486 127.826 81.6017 127.826 77.7243V63.6786C127.826 59.8013 124.679 56.6543 120.802 56.6543ZM120.802 79.1304H101.135V62.2756H120.802V79.1304Z" fill="url(#paint3_linear_31_121)"/>
<defs>
<linearGradient id="paint0_linear_31_121" x1="70" y1="0.252609" x2="70" y2="139.014" gradientUnits="userSpaceOnUse">
<stop stop-color="#1A6DFF"/>
<stop offset="1" stop-color="#C822FF"/>
</linearGradient>
<linearGradient id="paint1_linear_31_121" x1="44.7209" y1="24.8683" x2="44.7209" y2="108.235" gradientUnits="userSpaceOnUse">
<stop stop-color="#6DC7FF"/>
<stop offset="1" stop-color="#E6ABFF"/>
</linearGradient>
<linearGradient id="paint2_linear_31_121" x1="71.6377" y1="56.6543" x2="71.6377" y2="84.7487" gradientUnits="userSpaceOnUse">
<stop stop-color="#6DC7FF"/>
<stop offset="1" stop-color="#E6ABFF"/>
</linearGradient>
<linearGradient id="paint3_linear_31_121" x1="110.971" y1="56.6543" x2="110.971" y2="84.7486" gradientUnits="userSpaceOnUse">
<stop stop-color="#6DC7FF"/>
<stop offset="1" stop-color="#E6ABFF"/>
</linearGradient>
</defs>
</svg>
