<svg width="140" height="140" viewBox="0 0 140 140" fill="none" xmlns="http://www.w3.org/2000/svg">
<path d="M0 15.5556C0 6.965 6.965 0 15.5556 0H124.444C133.035 0 140 6.965 140 15.5556V124.444C140 133.035 133.035 140 124.444 140H15.5556C6.965 140 0 133.035 0 124.444V15.5556Z" fill="#7B1FA2"/>
<path d="M116.667 50.5556L120.555 27.2223H96.5999L98.9332 15.5556H42.7777V27.2223H19.4443L23.3332 54.4445L19.4443 112.778L42.7777 105.778V126.156L77.7777 119.156V102.41L120.427 105.265L116.667 50.5556Z" fill="white"/>
<path d="M50.5557 23.3333V116.667L70.0001 112.778V77.7777H85.5557V58.3333H70.0001V42.7777H85.5557L89.4446 23.3333H50.5557Z" fill="#7B1FA2"/>
</svg>
