<svg width="140" height="140" viewBox="0 0 140 140" fill="none" xmlns="http://www.w3.org/2000/svg">
<path d="M3.5 12H136.5C138.432 12 140 13.568 140 15.5V29.5C140 31.432 138.432 33 136.5 33C132.223 33 128.32 35.4535 126.469 39.3105L84.9905 125.659C84.3815 126.793 83.1985 127.5 81.9105 127.5H65.163C63.8365 127.5 62.6255 126.751 62.034 125.564L23.7615 45.5195C19.9255 37.8475 12.0785 33 3.5 33C1.568 33 0 31.432 0 29.5V15.5C0 13.568 1.568 12 3.5 12Z" fill="url(#paint0_linear_34_1863)"/>
<path fill-rule="evenodd" clip-rule="evenodd" d="M7 23.6305V22.5C7 20.568 8.568 19 10.5 19H73.5C75.432 19 77 20.568 77 22.5V23.2665C77 24.873 75.908 26.273 74.3505 26.6615L71.4665 27.3825C67.123 28.4675 64.9005 33.2975 66.9025 37.305L82.11 67.72C82.8065 69.113 84.8435 68.9695 85.337 67.4925L95.298 37.606C96.789 33.1295 94.3705 28.289 89.894 26.798C88.4625 26.322 87.5 24.985 87.5 23.4765V22.5C87.5 20.568 89.068 19 91 19H129.714C131.527 19 133 20.4735 133 22.2865V23.6305C133 25.0445 132.094 26.301 130.753 26.749C125.468 28.5095 121.1 32.3 118.611 37.2805L81.4345 118.456C80.864 119.702 79.6215 120.5 78.253 120.5H68.7015C67.354 120.5 66.129 119.726 65.5445 118.515L30.9855 46.517C26.8135 37.823 19.53 31.012 10.577 27.4315L9.198 26.8785C7.8715 26.35 7 25.062 7 23.6305Z" fill="white"/>
<path d="M124.631 22.5H95.4485C94.339 22.5 93.989 23.9945 94.9795 24.488L96.3585 25.1775C101.244 27.6205 103.439 33.399 101.412 38.467L96.6 50.5L85.3965 78.507C84.8435 79.8895 82.929 79.9945 82.2255 78.682L61.0715 39.0165C58.2925 33.805 60.3575 27.3265 65.639 24.684C66.724 24.1415 66.339 22.5035 65.1245 22.5035H19.236C17.766 22.5035 17.2305 24.439 18.4905 25.195C26.9675 30.2805 33.705 37.809 37.8245 46.797L69.0655 114.959C69.636 116.202 70.8785 117 72.247 117H74.7075C76.1005 117 77.3605 116.174 77.917 114.896L110.834 39.223C113.862 32.916 118.902 27.7955 125.163 24.67C126.245 24.1275 125.839 22.5 124.631 22.5Z" fill="url(#paint1_linear_34_1863)"/>
<defs>
<linearGradient id="paint0_linear_34_1863" x1="70" y1="12.511" x2="70" y2="127.647" gradientUnits="userSpaceOnUse">
<stop stop-color="#4C4C4C"/>
<stop offset="1" stop-color="#343434"/>
</linearGradient>
<linearGradient id="paint1_linear_34_1863" x1="37.6425" y1="9.4345" x2="115.22" y2="87.0155" gradientUnits="userSpaceOnUse">
<stop stop-color="#4CAF50"/>
<stop offset="0.133" stop-color="#4AAE50"/>
<stop offset="0.239" stop-color="#43A94E"/>
<stop offset="0.373" stop-color="#38A14C"/>
<stop offset="0.482" stop-color="#279648"/>
<stop offset="0.621" stop-color="#118844"/>
<stop offset="1" stop-color="#088242"/>
</linearGradient>
</defs>
</svg>
