<svg width="246" height="226" viewBox="0 0 246 226" fill="none" xmlns="http://www.w3.org/2000/svg">
<g clip-path="url(#clip0_15_218)">
<path d="M200.416 48.9886C198.078 52.4232 196.016 55.491 194.963 59.1064C193.072 65.6088 196.542 69.4741 203.609 70.9734C216.193 73.6425 223.697 81.3411 227.337 93.272C228.57 97.3074 228.735 101.513 228.761 105.756C231.232 102.204 231.902 98.174 232.04 94.0535C232.226 88.3433 231.131 82.782 229.324 77.3961C228.543 75.0567 229.367 75.0301 231.179 75.4821C238.236 77.2579 242.455 81.9738 244.337 88.7208C249.47 107.122 243.439 129.958 216.209 137.109C211.777 138.273 208.578 140.198 206.15 143.925C204.763 146.057 203.009 147.95 201.303 150.087C202.281 150.486 203.083 150.789 203.865 151.134C212.075 154.739 216.517 161.077 217.325 169.929C217.623 173.183 217.437 176.426 216.895 179.691C214.998 191.095 215.981 202.085 222.405 212.081C223.516 213.803 222.724 213.894 221.305 214.037C214.684 214.686 209.248 212.416 205.177 207.242C201.734 202.872 199.422 198.055 199.597 192.191C199.751 187.076 199.284 181.945 199.193 176.825C199.172 175.533 198.694 174.677 197.721 173.917C189.4 167.452 179.877 164.841 169.45 164.995C167.787 165.022 168.35 165.867 168.621 166.697C169.567 169.552 170.173 172.487 170.715 175.443C171.826 181.525 170.311 186.985 166.289 191.473C159.614 198.922 158.557 207.662 159.667 216.999C159.959 219.439 160.597 221.858 161.288 224.224C161.803 226.005 161.277 226.197 159.683 225.862C152.881 224.431 148.205 220.407 145.734 214.058C143.433 208.146 142.365 202.112 144.432 195.726C146.095 190.585 145.569 185.582 141.419 181.483C140.627 180.701 140.058 180.435 138.964 181.142C128.76 187.719 118.371 187.097 108.046 181.52C106.08 180.456 105.15 180.818 104.055 182.493C100.856 187.379 101.037 192.541 102.068 198.044C103.614 206.301 102.355 214.085 96.3445 220.486C93.3792 223.645 89.4627 225.357 84.6375 225.894C85.7907 220.779 86.6516 215.685 86.5666 210.48C86.455 203.207 84.5897 196.72 79.8495 190.877C74.2751 184.008 73.6639 176.081 76.8258 167.861C77.1978 166.888 77.6283 165.942 78.2075 164.554C68.1532 165.516 58.5347 166.526 50.3563 172.63C48.1297 174.289 46.8331 176.315 47.0722 179.382C47.3751 183.248 47.1679 187.156 47.1413 191.047C47.0988 197.922 44.5002 203.813 39.7866 208.694C35.2537 213.383 29.5091 214.888 22.7868 214.292C29.1318 205.195 30.5135 195.104 30.1468 184.635C30.0459 181.823 29.5357 179.021 29.2434 176.214C27.899 163.395 32.113 156.191 44.6756 150.076C41.8325 146.557 39.0161 143.085 36.2208 139.602C35.5991 138.826 34.701 138.81 33.8508 138.592C23.3873 135.918 14.0983 131.212 7.40252 122.472C-0.674906 111.897 -1.80681 100.125 2.3807 87.817C4.62325 81.2348 9.55472 77.0505 16.463 74.6952C14.5819 85.2437 10.9895 95.6858 17.1326 105.798C17.4674 102.3 17.6268 98.828 18.3867 95.404C21.3892 81.8994 29.8546 73.8711 43.1717 70.7767C50.3616 69.1072 52.838 64.8485 50.4095 57.8782C49.4423 55.1082 47.9862 52.5827 46.3176 50.1795C45.6374 49.2013 45.2761 48.5951 47.0085 48.4091C55.41 47.5052 63.2749 51.5513 66.4049 58.5056C70.3426 67.2623 68.5252 77.4546 61.9676 83.1276C58.2478 86.3495 54.0018 88.6889 49.3467 90.2786C44.2292 92.0279 40.5146 96.9724 40.5306 102.039C40.5412 106.112 45.1007 111.987 49.3467 113.513C50.1969 113.816 50.8399 113.662 51.5998 113.311C62.1324 108.483 73.0263 106.734 84.3984 109.765C85.9926 110.19 85.9767 109.281 86.1202 108.292C87.2255 100.822 85.0839 93.9632 82.1505 87.2587C81.7254 86.2911 81.2684 85.3181 80.6998 84.4302C68.5571 65.6194 75.9065 35.367 88.4052 22.4207C97.1204 13.3928 106.749 5.8483 118.409 1.02068C121.448 -0.239399 124.568 -0.42017 127.427 0.988775C134.787 4.62013 142.333 7.97501 148.715 13.3131C168.616 29.9545 175.312 52.1733 169.509 75.7692C169.063 77.5822 168.244 79.2304 167.351 80.8733C163.015 88.8591 159.402 97.0682 159.779 106.452C159.922 110.014 159.917 110.004 163.249 109.27C173.76 106.963 183.852 108.366 193.491 112.949C195.277 113.8 196.6 113.625 198.178 112.795C205.071 109.158 207.43 100.407 203.067 94.5321C202.212 93.3783 201.202 92.4107 199.89 91.7886C198.131 90.9539 196.414 90.0287 194.623 89.2844C191.663 88.0562 188.985 86.3655 186.301 84.6429C175.769 77.9065 176.157 65.9066 180.483 57.1551C182.247 53.5823 185.324 51.3652 189.033 50.02C192.599 48.7281 196.271 48.6377 200.41 48.9833L200.416 48.9886Z" fill="black"/>
<path d="M83.8936 81.3679C80.6254 74.472 78.9568 67.2306 79.1534 59.5851C79.9452 54.2258 82.9796 49.765 85.3496 45.1075C88.6391 38.6317 93.1454 32.9215 98.4914 27.9237C99.9262 26.5839 101.457 25.3929 103.242 24.5848C106.723 23.011 109.869 23.8936 112.037 27.0358C114.593 30.7469 117.17 34.4367 120.029 37.9299C122.118 40.4872 122.485 40.5245 124.764 38.3074C128.569 34.6016 132.172 30.7469 134.85 26.0947C136.423 23.3619 139.059 22.9313 142.497 24.739C145.84 26.4988 148.412 29.1997 150.867 31.991C156.691 38.6051 160.99 46.2081 165.029 53.9812C166.134 56.1132 165.725 58.4473 166.267 60.6431C166.416 67.1136 165.465 73.3927 163.004 79.406C162.702 80.1503 162.691 81.235 161.495 81.32C161.362 81.3094 161.235 81.2988 161.102 81.2934C153.673 77.9013 149.64 79.1721 145.574 86.4348C140.893 94.7927 134.308 101.056 125.705 105.293C123.547 106.357 121.709 106.171 119.657 105.224C110.693 101.072 104.3 94.2664 99.7774 85.6851C97.4923 81.3519 94.1976 79.5123 89.4362 80.0068C87.5072 80.1397 85.8279 81.2775 83.8883 81.3732L83.8936 81.3679Z" fill="#1AA0EB"/>
<path d="M166.267 60.6431C162.824 48.1168 155.602 37.882 146.706 28.6946C144.756 26.6849 142.551 24.9037 139.569 24.4359C137.699 24.1435 136.285 24.5901 135.403 26.3127C132.613 31.7464 128.144 35.7819 123.967 40.0725C122.277 41.8111 121.257 40.5829 120.343 39.4026C117.707 35.9999 115.087 32.5759 112.622 29.0508C108.838 23.6277 104.959 22.9206 100.075 27.3654C93.5758 33.2777 88.2405 40.1204 84.5684 48.1806C82.8254 52.0087 80.9602 55.7836 79.1534 59.585C78.691 45.8997 83.5534 34.2028 92.6618 24.2019C100.734 15.3336 110.9 9.5436 121.852 4.98713C122.601 4.67344 123.282 4.52988 124.121 4.88079C140.866 11.8989 154.661 22.2081 162.292 39.2697C165.321 46.0432 166.767 53.1837 166.267 60.6484V60.6431Z" fill="#59B2E7"/>
<path d="M7.33869 114.826C5.65943 112.604 5.53721 109.892 5.09083 107.324C4.11835 101.705 3.88984 96.0794 5.8348 90.5818C6.80196 87.8437 8.15174 85.3448 10.9842 83.25C9.27833 89.0772 8.99137 94.479 10.3199 99.9021C13.0141 110.86 22.638 119.255 34.3183 121.169C40.5943 122.201 46.4557 120.967 52.1737 118.601C60.2777 115.252 68.6049 113.274 77.4528 113.55C85.1157 113.79 90.9453 117.889 96.743 122.137C102.344 126.236 106.579 131.415 109.375 137.848C112.855 145.86 116.618 153.756 120.253 161.704C120.391 162.002 120.47 162.321 120.433 162.725C113.939 154.543 107.903 145.999 99.8517 139.214C98.5551 138.97 97.7048 138.135 96.9077 137.146C90.2917 128.894 81.8529 124.822 71.0865 124.918C63.6946 124.987 56.6375 125.619 50.0374 129.208C48.4007 130.101 46.5036 130.325 44.617 130.33C41.96 130.33 39.303 130.261 36.6459 130.351C34.0101 130.442 31.5497 129.83 29.1796 128.772C21.2085 125.199 13.9813 120.462 7.32274 114.832L7.33869 114.826Z" fill="#1AA0EB"/>
<path d="M145.569 140.23C137.614 147.11 131.497 155.574 125.179 164.006C124.801 163.002 125.492 162.443 125.79 161.789C129.664 153.267 132.932 144.398 137.587 136.322C145.213 123.083 156.17 114.082 172.49 114.358C180.068 114.486 187.269 116.703 194.262 119.649C208.993 125.848 225.95 120.212 233.065 106.798C236.626 100.083 237.008 92.9797 235.17 85.6904C235.069 85.2863 234.941 84.8876 234.66 83.9093C238.279 86.7219 239.825 90.1193 240.58 93.841C242.014 100.923 241.228 107.888 239.012 114.725C234.112 119.691 228.065 123.014 222.209 126.646C215.715 130.676 208.626 131.351 201.271 130.793C199.045 130.622 196.935 129.963 194.916 129.027C184.941 124.418 174.642 123.727 164.152 126.81C157.823 128.671 153.083 132.925 148.917 137.859C147.992 138.954 147.121 140.044 145.569 140.23Z" fill="#1AA0EB"/>
<path d="M83.8936 81.3679C85.4028 79.8579 87.4646 79.8154 89.3511 79.2943C93.5652 81.2456 96.1532 84.2336 95.7918 89.1782C95.6962 90.4968 95.8237 91.8313 95.7387 93.1498C95.6855 93.9314 95.7387 94.8512 94.8725 95.2287C93.9266 95.6381 93.4589 94.7768 92.9116 94.2398C92.4067 93.7453 92.0029 93.1605 91.5193 92.6448C91.5884 96.4356 94.3358 101.194 98.3532 104.384C100.569 106.144 102.806 107.888 105.107 109.52C108.716 112.078 111.362 115.188 112.037 120.042C113.238 117.83 113.025 115.895 112.855 113.97C112.632 111.397 113.164 110.35 115.597 110.084C120.614 109.531 125.673 109.706 130.705 109.983C132.629 110.089 133.272 111.487 133.123 113.396C132.959 115.539 132.523 117.756 133.867 120.111C135.78 113.29 140.414 109.1 145.851 105.607C150.755 102.454 153.588 98.0041 154.507 91.7941C153.269 92.8096 152.828 93.9739 151.972 94.7449C151.351 95.3085 150.245 95.8667 150.256 94.5694C150.283 90.6829 149.31 86.6262 152.217 83.1331C155.352 79.3688 157.217 78.8956 161.522 81.336L161.49 81.3147C162 82.2345 161.463 82.9895 161.139 83.7976C159.556 87.7267 157.908 91.6293 156.452 95.6062C154.725 100.333 153.641 105.187 154.566 110.77C152.339 109.185 150.5 107.877 148.332 106.335C148.258 109.738 148.013 112.817 146.94 115.799C145.234 120.542 142.434 124.237 138.14 127.007C134.845 129.134 132.401 132.212 130.721 135.828C129.908 137.577 128.989 139.283 127.783 141.665C126.098 135.588 124.573 130.085 122.862 123.923C120.279 130.303 119.275 136.519 117.043 142.787C116.15 139.055 114.938 135.822 112.914 132.914C111.479 130.856 109.869 128.953 107.913 127.464C101.032 122.227 96.8174 115.682 97.317 106.224C95.101 107.697 93.2357 108.941 91.142 110.334C91.5246 105.905 91.9657 101.572 90.1748 97.6266C88.6444 94.2451 87.2255 90.8317 85.9395 87.3599C85.2061 85.382 84.5738 83.3723 83.8989 81.3732L83.8936 81.3679Z" fill="#4669A3"/>
<path d="M157.244 182.636C159.205 177.532 159.083 172.609 156.681 167.563C154.757 163.523 153.471 159.184 151.818 155.016C151.297 153.697 151.611 153.352 152.971 153.304C164.482 152.884 175.891 153.341 187.003 156.797C187.874 156.781 188.735 156.579 189.612 156.877C196.818 159.306 203.126 162.917 206.968 169.844C208.626 172.827 209.567 175.959 209.535 179.42C209.476 185.927 209.125 192.467 211.07 198.821C212 201.851 212.883 204.898 214.636 207.593C214.891 208.04 215.141 208.492 215.63 209.359C211.846 208.274 209.295 206.216 207.26 203.505C204.136 199.342 202.711 194.546 202.568 189.405C202.435 184.726 202.462 180.037 202.578 175.352C202.626 173.327 201.909 171.785 200.591 170.36C198.396 167.973 195.745 166.261 192.848 164.868C183.341 160.301 169.142 158.908 158.966 159.083C160.672 162.342 162.276 165.532 163.642 168.855C167.149 177.367 166.374 185.204 160.475 192.419C159.301 193.855 158.28 195.407 157.191 196.912C156.128 196.853 156.293 195.966 156.213 195.349C155.772 191.845 155.91 188.325 156.022 184.811C156.048 183.907 156.314 183.067 157.249 182.636H157.244Z" fill="#6EAFDA"/>
<path d="M88.6921 197.135C86.3645 194.461 84.5949 191.404 82.6287 188.469C79.6103 183.96 79.1427 179.228 80.4128 174.055C81.7041 168.802 83.8563 163.932 86.7578 158.902C79.7644 159.11 73.1962 159.455 66.6918 160.662C60.655 161.784 54.7935 163.363 49.5166 166.644C47.9277 167.627 46.477 168.765 45.1803 170.115C43.6392 171.721 42.9378 173.502 42.9165 175.81C42.8581 181.807 43.5967 187.842 42.4595 193.791C41.2054 200.347 38.1391 205.722 31.8154 208.715C31.3424 208.938 30.1149 209.981 30.7472 208.098C34.1802 202.351 35.5512 196.024 35.9019 189.437C36.0348 186.885 36.0348 184.317 35.9019 181.764C35.4608 172.949 39.4836 166.511 46.5832 161.789C50.3403 159.29 54.395 157.323 58.9651 156.722C63.9656 154.862 69.2213 154.107 74.4769 153.708C80.4446 153.256 86.4283 152.746 92.4385 153.283C93.9212 153.415 94.2985 153.745 93.6927 155.165C91.7743 159.7 90.3873 164.432 88.3095 168.919C86.2317 173.391 86.7046 178.011 88.2138 182.573C88.9684 182.998 89.3511 183.678 89.4042 184.503C89.6433 188.256 89.6593 192.015 89.3883 195.769C89.3511 196.295 89.1066 196.779 88.6762 197.135H88.6921Z" fill="#6EAFDA"/>
<path d="M145.569 140.23C148.008 138.438 149.597 135.843 151.712 133.733C157.765 127.688 165.125 124.795 173.516 124.343C181.301 123.923 188.608 125.609 195.904 128.544C203.301 131.521 211.092 131.17 218.515 127.688C225.349 124.482 231.455 120.148 237.423 115.597C237.917 115.22 238.353 114.778 239.017 114.731C237.184 119.691 233.661 123.408 229.781 126.752C220.418 134.828 209.423 136.832 197.504 134.881C194.071 134.318 191.259 132.005 187.864 131.239C171.374 127.507 156.718 132.691 147.45 148.061C144.756 152.528 142.795 157.318 140.621 162.092C140.871 157.621 140.505 153.134 142.285 148.87C143.475 146.025 144.479 143.112 145.569 140.225V140.23Z" fill="#4669A3"/>
<path d="M7.33875 114.826C9.57598 115.161 10.9311 116.942 12.6156 118.144C18.6046 122.403 24.5777 126.975 31.7145 128.788C38.3412 130.468 45.3026 130.809 51.8921 127.587C56.2656 125.449 60.8676 124.078 65.8522 124.28C70.518 124.471 75.2369 123.844 79.8495 124.981C87.1511 126.778 92.9647 130.883 97.5136 136.774C98.2257 137.699 99.1185 138.364 99.8571 139.214C101.297 142.548 102.865 145.828 104.151 149.221C105.66 153.208 106.064 157.366 105.203 161.869C104.066 158.993 103.173 156.223 101.914 153.628C97.9653 145.499 93.0763 138.05 84.7598 133.738C74.7268 128.538 64.1411 127.81 53.8477 132.372C46.5142 135.62 39.202 135.721 31.858 134.153C21.0969 131.856 13.2799 125.157 7.6629 115.826C7.48754 115.533 7.44503 115.161 7.33875 114.832V114.826Z" fill="#4669A3"/>
<path d="M27.0912 87.1844C30.7738 82.1122 34.9029 77.8429 41.4499 76.2957C45.2494 75.3972 48.948 73.7011 51.8549 70.7875C56.1168 66.5128 57.0786 61.5948 54.751 56.0228C54.5332 55.5071 53.9273 55.0445 54.3259 54.3002C55.4366 54.3959 56.2284 55.0392 56.9617 55.7942C61.2077 65.6143 59.2468 74.5943 53.2525 83.0214C51.1428 84.1113 49.0968 85.3608 46.9127 86.2646C41.8325 88.3754 38.745 92.2354 36.7575 97.1693C36.5928 97.5734 36.428 97.9775 36.2474 98.3762C36.2155 98.4454 36.1198 98.4826 35.716 98.7909C34.6478 94.2398 35.2111 89.8588 35.5672 85.4299C30.9864 88.6838 29.6313 97.6638 32.2459 108.675C30.1255 105.389 28.8236 102.449 27.5641 99.4874C26.4269 98.7909 26.2197 97.6319 26.4216 96.5154C26.9796 93.421 26.6076 90.2735 27.0965 87.1844H27.0912Z" fill="#1AA0EB"/>
<path d="M218.372 99.4236C217.107 102.008 216.145 104.751 214.254 107.144C216.188 99.3386 215.683 91.9908 210.438 84.6802C210.39 89.795 211.405 94.2291 210.156 98.5889C209.152 98.5038 209.402 97.685 209.195 97.1906C207.191 92.3949 204.295 88.4711 199.294 86.371C197.025 85.4193 194.878 84.1858 192.673 83.0746C187.651 76.2106 185.621 68.6874 187.577 60.2709C187.758 59.5 187.88 58.6865 188.379 58.0538C189.24 56.9639 189.793 57.368 190.128 58.5004C189.368 65.9439 191.855 70.5057 198.651 73.8606C200.628 74.8336 202.648 75.9075 204.768 76.3595C210.959 77.6834 214.87 81.8411 218.399 86.5943C219.658 89.9598 218.994 93.538 219.568 96.9832C219.727 97.9456 219.382 98.9079 218.372 99.4236Z" fill="#1AA0EB"/>
<path d="M58.9705 156.728C55.9308 158.535 52.3863 159.142 49.2988 160.896C43.0335 164.464 38.4315 169.297 36.8904 176.501C36.2049 179.707 36.6247 183.014 36.6831 186.273C36.8001 192.515 35.8541 198.544 33.4097 204.302C32.7985 205.738 32.384 207.354 30.7579 208.098C33.0961 201.761 34.3184 195.205 34.2174 188.469C34.1536 184.354 33.9783 180.18 33.2237 176.15C31.2628 165.708 38.001 156.563 45.4939 154.011C49.3094 152.714 52.9071 150.794 56.9883 148.992C52.4979 147.158 47.9118 146.408 44.6543 142.548C46.4026 141.921 47.7843 142.782 49.1766 142.899C53.0506 143.223 56.9245 143.489 60.8091 143.345C62.2971 143.292 62.7913 143.792 62.77 145.313C62.7222 148.715 61.3671 151.624 59.7676 154.495C59.3903 155.17 58.3115 155.654 58.9758 156.717L58.9705 156.728Z" fill="#4669A3"/>
<path d="M214.631 207.593C211.931 205.472 211.373 202.229 210.443 199.262C208.844 194.174 208.339 188.868 208.844 183.583C210.332 167.973 198.864 160.067 187.949 157.185C187.619 157.1 187.316 156.924 187.003 156.792C185.834 153.841 183.628 151.353 183.155 148.093C183.092 147.663 182.879 147.253 182.815 146.817C182.337 143.792 182.629 143.452 185.642 143.431C190.579 143.399 195.537 143.579 200.453 142.351C197.116 145.781 192.949 147.615 188.183 148.917C192.237 150.715 196.255 152.613 200.363 154.282C208.727 157.685 213.589 165.687 212.441 174.465C211.007 185.476 210.427 196.428 214.62 207.067C214.679 207.221 214.631 207.418 214.636 207.593H214.631Z" fill="#4669A3"/>
<path d="M88.6921 197.135C88.6974 193.211 88.6921 189.293 88.724 185.369C88.7346 184.391 88.6177 183.466 88.2245 182.573C89.3404 181.77 89.2714 180.403 89.7284 179.297C91.5777 174.789 94.4526 171.248 99.0227 169.286C101.648 168.154 101.802 168.334 101.956 171.062C102.195 175.342 101.382 179.037 98.4966 182.583C95.0797 186.783 95.8661 191.893 97.4019 196.752C100.208 205.615 97.1787 214.899 89.4892 220.588C90.1269 218.354 90.8018 216.201 91.3545 214.011C92.8584 208.019 91.126 202.516 88.7028 197.135H88.6921Z" fill="#4669A3"/>
<path d="M157.244 182.636C156.234 186.459 156.824 190.351 156.893 194.2C156.909 195.04 156.468 196.088 157.186 196.912C153.179 204.244 152.631 211.778 155.815 219.545C155.937 219.843 155.99 220.167 156.123 220.673C148.54 215 145.484 205.988 148.077 197.178C149.942 190.84 150.155 184.907 145.059 179.691C143.013 177.596 144.033 174.624 143.959 172.029C143.847 168.169 144.304 167.973 147.796 169.812C152.127 172.099 154.582 175.847 156.213 180.286C156.505 181.084 156.468 182.046 157.244 182.636Z" fill="#4669A3"/>
<path d="M190.128 58.5004C189.166 57.4158 188.916 57.8518 188.565 59.0374C186.105 67.3794 188.225 74.908 192.508 82.075C192.71 82.4153 193.263 82.6333 192.668 83.0745C183.82 79.2731 179.935 71.4149 182.879 63.009C184.399 58.6652 187.912 56.1398 192.104 53.6196C191.329 55.5283 190.728 57.0117 190.122 58.5004H190.128Z" fill="#59B2E7"/>
<path d="M53.2471 83.0267C52.4819 81.7985 53.8848 81.4423 54.2674 80.7352C58.4284 73.0418 60.0385 65.1305 56.7225 56.6981C56.5737 56.3206 56.6109 56.0282 56.9564 55.7995C62.7328 59.0002 64.5502 64.1681 63.769 70.325C62.9613 76.6625 59.2042 80.8203 53.2471 83.0267Z" fill="#59B2E7"/>
<path d="M27.0911 87.1844C27.9999 89.8162 27.7076 92.4959 27.309 95.1489C27.0858 96.643 26.9689 98.0678 27.5641 99.4874C26.4641 104.459 26.6341 109.318 29.0414 114.093C22.4466 111.689 21.0012 109.398 21.6389 102.906C22.1969 97.2225 23.4776 91.8047 27.0965 87.1844H27.0911Z" fill="#4669A3"/>
<path d="M218.372 99.4236C219.111 97.903 218.723 96.3771 218.574 94.7874C218.319 92.0758 218.436 89.3271 218.399 86.5942C222.405 92.2034 224.621 98.3443 224.324 105.346C224.191 108.404 223.5 110.833 220.359 112.051C219.228 112.487 218.223 113.263 216.826 114.082C219.164 109.175 219.557 104.368 218.377 99.4236H218.372Z" fill="#4669A3"/>
<path d="M161.527 81.3413C155.48 79.3263 150.814 82.7715 150.809 89.2686C150.809 91.1135 150.809 92.9638 150.809 95.2819C152.217 93.3997 153.428 91.7834 154.97 89.7205C155.517 93.5273 154.422 96.4675 152.865 99.2748C151.303 102.103 149.119 104.374 146.355 106.096C143.194 108.069 140.377 110.408 138.034 113.37C136.126 115.783 134.654 118.261 134.765 121.701C133.038 120.994 132.544 119.712 132.273 118.351C132.119 117.586 132.193 116.767 132.204 115.975C132.268 112.37 130.424 110.573 126.672 110.584C123.223 110.594 119.774 110.514 116.331 110.642C114.359 110.716 112.744 111.046 113.536 113.981C114.205 116.469 114.067 119.218 111.564 121.722C111.41 113.742 105.437 110.562 100.314 106.793C95.3879 103.172 91.5299 98.9079 90.4724 92.6554C90.3714 92.0599 90.3821 91.4432 90.3236 90.55C92.2686 91.709 92.8372 93.8889 94.6918 94.9097C95.9247 88.6146 95.4305 83.0161 89.3564 79.2997C94.3942 78.7786 97.8696 80.6767 100.319 85.2917C104.937 93.9899 111.405 100.955 120.683 104.942C122.256 105.618 123.574 105.612 125.157 104.841C134.011 100.519 140.887 94.2557 145.351 85.3714C148.842 78.433 156.346 76.6572 161.527 81.3413Z" fill="black"/>
<path d="M95.2551 45.905C98.8581 57.9368 102.089 70.0272 110.251 80.9585C111.038 75.1898 111.718 70.1654 112.404 65.1464C113.78 70.7396 114.822 76.3169 116.352 81.7826C117.569 86.1264 118.967 90.3904 121.406 94.2504C122.362 95.7604 123.011 95.7391 124.042 94.3036C128.017 88.7794 129.664 82.378 131.178 75.9235C132.039 72.2496 132.688 68.5279 133.623 64.7157C134.277 69.9474 134.935 75.1738 135.69 81.2243C143.14 69.9847 146.956 57.9528 150.458 45.7614C150.442 56.5385 149.273 67.1083 145.266 77.2048C142.152 85.0524 137.874 92.1769 130.945 97.1959C122.516 103.3 123.303 103.012 115.071 97.5043C110.921 94.7289 107.77 90.837 105.224 86.5304C97.8218 73.9829 95.6696 60.1327 95.2551 45.9156V45.905Z" fill="black"/>
<path d="M146.796 91.4485C148.178 96.3665 146.361 99.4183 142.088 101.428C140.26 102.289 139.07 104.118 137.762 105.676C137.125 106.431 136.593 107.798 135.35 106.506C134.367 105.479 133.766 103.996 135.095 103.018C139.543 99.7533 143.002 95.5105 146.796 91.4485Z" fill="#FCF200"/>
<path d="M98.7676 91.3528C103.008 95.8401 106.303 100.136 110.804 103.22C111.941 104.001 111.878 105.23 111.001 106.192C110.331 106.931 109.072 107.409 108.471 106.468C106.595 103.534 103.832 101.694 101.015 99.9021C97.8483 97.8871 99.1715 94.8246 98.7623 91.3528H98.7676Z" fill="#FBF100"/>
</g>
<defs>
<clipPath id="clip0_15_218">
<rect width="246" height="226" fill="white"/>
</clipPath>
</defs>
</svg>
