<svg width="42" height="42" viewBox="0 0 42 42" fill="none" xmlns="http://www.w3.org/2000/svg">
<path d="M0 4.63801C0 2.07667 2.07667 0 4.63801 0H37.1041C39.6655 0 41.7421 2.07667 41.7421 4.63801V37.1041C41.7421 39.6655 39.6655 41.7421 37.1041 41.7421H4.63801C2.07667 41.7421 0 39.6655 0 37.1041V4.63801Z" fill="#7B1FA2"/>
<path d="M34.7851 15.0736L35.9446 8.11653H28.802L29.4977 4.63802H12.7545V8.11653H5.79749L6.95699 16.2331L5.79749 33.6256L12.7545 31.5385V37.6143L23.19 35.5272V30.5344L35.9063 31.3854L34.7851 15.0736Z" fill="white"/>
<path d="M15.0735 6.95702V34.7851L20.871 33.6256V23.1901H25.509V17.3925H20.871V12.7545H25.509L26.6685 6.95702H15.0735Z" fill="#7B1FA2"/>
</svg>
