<svg width="43" height="42" viewBox="0 0 43 42" fill="none" xmlns="http://www.w3.org/2000/svg">
<path d="M21.6133 3.97544C18.8724 3.97544 16.1584 4.46388 13.6262 5.41285C11.094 6.36183 8.79324 7.75277 6.85518 9.50625C4.91712 11.2597 3.37977 13.3414 2.3309 15.6324C1.28203 17.9235 0.742188 20.379 0.742188 22.8588C0.742188 25.3386 1.28203 27.7941 2.3309 30.0851C3.37977 32.3762 4.91712 34.4578 6.85518 36.2113C8.79324 37.9648 11.094 39.3557 13.6262 40.3047C16.1584 41.2537 18.8724 41.7421 21.6133 41.7421C24.3541 41.7421 27.0681 41.2537 29.6003 40.3047C32.1325 39.3557 34.4333 37.9648 36.3713 36.2113C38.3094 34.4578 39.8467 32.3762 40.8956 30.0851C41.9445 27.7941 42.4843 25.3386 42.4843 22.8588C42.4843 20.379 41.9445 17.9235 40.8956 15.6324C39.8467 13.3414 38.3094 11.2597 36.3713 9.50625C34.4333 7.75277 32.1325 6.36183 29.6003 5.41285C27.0681 4.46388 24.3541 3.97544 21.6133 3.97544Z" fill="#DD9F05"/>
<path d="M21.6133 5.96316C16.6606 5.96316 11.9108 7.74323 8.40873 10.9118C4.90665 14.0803 2.93921 18.3778 2.93921 22.8588C2.93921 27.3398 4.90665 31.6372 8.40873 34.8058C11.9108 37.9743 16.6606 39.7544 21.6133 39.7544C26.566 39.7544 31.3158 37.9743 34.8179 34.8058C38.32 31.6372 40.2874 27.3398 40.2874 22.8588C40.2874 18.3778 38.32 14.0803 34.8179 10.9118C31.3158 7.74323 26.566 5.96316 21.6133 5.96316Z" fill="#01579B"/>
<path d="M32.5981 28.822C33.6054 31.721 30.2177 33.836 27.5638 33.836C26.1116 33.836 24.3145 33.3351 23.8103 31.8035C21.9374 32.704 20.3347 33.7008 19.4164 34.3061V35.779H33.6032C35.798 34.1113 37.5731 32.0083 38.7342 29.5972C37.795 29.2791 35.8804 28.822 32.5981 28.822ZM35.4135 11.5C31.0657 12.6558 27.9757 14.7549 26.5686 15.859C25.5997 18.5196 23.2797 21.4495 19.4164 23.8527V30.8097C19.4164 30.8097 22.4877 25.732 29.7607 24.1836C34.5018 23.1739 38.598 22.8866 40.2853 22.8061C40.2699 18.448 38.4233 14.4865 35.4135 11.5Z" fill="#0277BD"/>
<path d="M33.6074 9.93164C32.565 9.14053 31.4314 8.44384 30.2142 7.87137C28.9916 8.38321 27.4615 9.08686 26.0071 9.9386C26.698 10.7208 27.0583 11.7673 27.0891 12.9599C28.6819 11.9432 30.8821 10.7854 33.6074 9.93164Z" fill="#0091EA"/>
<path d="M21.6133 7.95089C17.2433 7.95089 13.0522 9.52154 9.96216 12.3173C6.87209 15.1131 5.13611 18.905 5.13611 22.8588C5.13611 26.8126 6.87209 30.6045 9.96216 33.4003C13.0522 36.1961 17.2433 37.7667 21.6133 37.7667C25.9833 37.7667 30.1743 36.1961 33.2644 33.4003C36.3544 30.6045 38.0904 26.8126 38.0904 22.8588C38.0904 18.905 36.3544 15.1131 33.2644 12.3173C30.1743 9.52154 25.9833 7.95089 21.6133 7.95089Z" fill="#0277BD"/>
<path d="M27.7174 9.02028C27.1495 9.30453 26.5739 9.60666 26.0071 9.93861C26.698 10.7208 27.0583 11.7673 27.0891 12.9599C28.193 12.2553 29.6079 11.487 31.2677 10.7953C30.1758 10.0787 28.9883 9.47945 27.7174 9.02028Z" fill="#00B0FF"/>
<path d="M38.0905 22.8588C38.0905 18.6945 36.2 14.9338 33.1572 12.2295C29.9991 13.4022 27.7154 14.9586 26.5675 15.859C25.5997 18.5196 23.2797 21.4495 19.4164 23.8527V30.8097C19.4164 30.8097 22.4877 25.732 29.7607 24.1836C33.0496 23.4839 36.0056 23.1351 38.085 22.9572C38.085 22.9244 38.0905 22.8926 38.0905 22.8588Z" fill="#0091EA"/>
<path d="M38.6101 33.7912H31.4996V35.779H36.8053C37.4556 35.1538 38.0586 34.4919 38.6101 33.7912ZM19.4164 4.08179V41.6358C20.1392 41.7044 20.8708 41.7421 21.6133 41.7421V3.97544C20.8708 3.97544 20.1392 4.01321 19.4164 4.08179ZM7.33313 36.6039C8.02407 37.1912 8.75566 37.7379 9.53008 38.2368V7.48079C8.75566 7.97971 8.02407 8.52633 7.33313 9.1137V36.6039Z" fill="#B3831D"/>
<path d="M7.33313 33.7346C8.0021 34.4532 8.73918 35.1181 9.53008 35.7273V9.9893C8.73918 10.5985 8.0021 11.2634 7.33313 11.982V33.7346Z" fill="#01579B"/>
<path d="M6.23462 0H19.4163V35.779H41.3859L35.8935 41.7421H6.23462L9.53005 37.7667V3.97544L6.23462 0Z" fill="#FFC107"/>
<path d="M21.6133 33.7912V5.96316C20.8686 5.96316 20.1381 6.01384 19.4164 6.09037V35.779H33.634C34.4282 35.1737 35.1631 34.5068 35.8364 33.7912H21.6133Z" fill="#01579B"/>
<path d="M21.6133 22.2575C20.974 22.7981 20.2534 23.3318 19.4164 23.8526V30.8097C19.4164 30.8097 20.115 29.6677 21.6133 28.3041V22.2575Z" fill="#0277BD"/>
<path d="M19.4163 35.779V0H17.2194V37.7667H39.5547L41.3859 35.779H19.4163Z" fill="#E8A30A"/>
<path d="M32.5981 28.822C33.6054 31.7211 30.2177 33.836 27.5638 33.836C26.1116 33.836 24.3145 33.3351 23.8103 31.8035C21.9374 32.704 20.3347 33.7008 19.4164 34.3061V35.779H29.8102C32.7618 34.2425 35.1301 31.9069 36.5658 29.0933C35.5563 28.9382 34.2513 28.822 32.5981 28.822Z" fill="#0091EA"/>
<path d="M35.1784 34.4373C35.3937 34.2325 35.5805 34.0049 35.7837 33.7912H28.2152C27.9955 33.8181 27.7769 33.836 27.5638 33.836C27.3342 33.836 27.0958 33.8181 26.8564 33.7912H21.6133V32.9604C20.7082 33.4762 19.9458 33.9572 19.4164 34.3061V35.779H33.6032C34.1492 35.3635 34.6698 34.9213 35.1609 34.4542C35.1663 34.4492 35.1718 34.4432 35.1784 34.4373Z" fill="#0277BD"/>
</svg>
