<svg width="42" height="42" viewBox="0 0 42 42" fill="none" xmlns="http://www.w3.org/2000/svg">
<path d="M37.2049 41.7421H4.53719C2.03538 41.7421 0 39.7067 0 37.2049V4.53719C0 2.03538 2.03538 0 4.53719 0H37.2049C39.7067 0 41.7421 2.03538 41.7421 4.53719V37.2049C41.7421 39.7067 39.7067 41.7421 37.2049 41.7421ZM4.53719 1.81488C3.03629 1.81488 1.81488 3.03629 1.81488 4.53719V37.2049C1.81488 38.7058 3.03629 39.9273 4.53719 39.9273H37.2049C38.7058 39.9273 39.9273 38.7058 39.9273 37.2049V4.53719C39.9273 3.03629 38.7058 1.81488 37.2049 1.81488H4.53719Z" fill="url(#paint0_linear_3_154)"/>
<path d="M15.0616 15.852C15.5126 15.9183 15.735 15.4954 16.0689 15.3012C16.5054 14.9909 16.3901 14.3829 16.5789 13.9382C16.7105 13.8947 16.8438 13.8548 16.9772 13.8166C16.9083 13.3838 16.7313 12.9673 16.7613 12.5217C16.999 12.3448 17.2776 12.1506 17.3756 11.8602C17.4673 11.8148 17.5616 11.7695 17.6533 11.7205C18.3266 11.7096 18.9999 11.7259 19.6741 11.7168C19.8456 11.7259 19.7821 11.4972 19.823 11.3956C19.9936 11.5054 20.2059 11.519 20.3992 11.4646C20.724 11.3575 21.0698 11.4156 21.4055 11.4001C21.6233 11.4056 21.8656 11.3575 22.0462 11.5127C22.3257 11.4646 22.6115 11.4691 22.8955 11.4736C22.9001 11.3593 22.9037 11.2459 22.9073 11.1324C22.6868 11.1334 22.4663 11.1334 22.2458 11.137C22.1796 11.1107 22.1115 11.0844 22.0444 11.058C22.0081 11.0844 21.9355 11.1379 21.8992 11.1651C21.411 11.205 20.9164 11.1733 20.4273 11.1787C20.4328 11.0263 20.509 10.8548 20.3765 10.7305C20.3484 10.7649 20.2894 10.8312 20.2613 10.8648C20.2231 10.8176 20.146 10.725 20.1079 10.6778C20.1052 10.4283 20.1052 10.1769 20.1043 9.92646C20.0607 9.92737 19.9736 9.931 19.9291 9.93282C19.93 10.2513 19.9273 10.5698 19.9291 10.8883C19.8829 10.8883 19.7912 10.8874 19.7458 10.8874C19.7495 10.8275 19.7585 10.7078 19.7631 10.647C18.0144 10.6297 16.2676 10.6479 14.5181 10.637C14.5181 10.5971 14.5163 10.5181 14.5154 10.4782C14.4083 10.4519 14.303 10.4256 14.1987 10.3956C14.1978 10.2323 14.195 10.0653 14.1125 9.92011C14.0408 10.1388 13.9981 10.3657 13.9437 10.5889C13.5444 10.5608 13.2032 10.8421 12.8003 10.7767C12.7803 10.5444 12.744 10.3121 12.744 10.0789C12.9328 10.0163 13.1651 9.99089 13.2985 9.82755C13.4945 9.34389 13.3665 8.79761 13.1642 8.33663C13.1751 8.31032 13.1969 8.25406 13.2077 8.22774C13.186 8.18781 13.1406 8.10705 13.1188 8.06622C12.8348 7.95914 12.5807 7.79399 12.3275 7.63065C12.0553 7.49635 11.7422 7.39834 11.4364 7.41559C11.3348 7.42103 11.2332 7.43918 11.1342 7.47366C9.93643 7.68872 9.30758 9.21957 9.83298 10.2686C9.76946 10.3266 9.70594 10.3865 9.64242 10.4446C9.41102 10.1279 9.00086 10.2159 8.67418 10.294C7.98272 10.5263 7.53898 11.1642 7.30758 11.8266C7.01902 12.6043 7.04352 13.4519 7.14334 14.2631C6.8221 14.4156 6.45913 14.3185 6.12973 14.4328C6.10614 15.0807 6.06439 15.7295 5.95096 16.3684C5.92465 16.558 5.88563 16.7549 5.9555 16.94C6.24679 17.0081 6.53626 17.0843 6.83299 17.1234C6.6506 17.1569 6.47728 17.2241 6.31394 17.3112C6.31394 17.3112 6.20868 17.3702 6.18599 17.4128C6.08799 18.2576 6.38018 19.0743 6.35568 19.9183C5.96458 19.8357 5.97909 20.2921 5.92737 20.5471C5.98182 20.5961 6.03445 20.6469 6.08889 20.6959C6.03717 20.784 5.99452 20.8747 5.96004 20.97C6.0281 21.2132 5.95913 21.499 6.1751 21.6787C6.06076 22.3956 5.92919 23.1106 5.85478 23.8329C5.82392 24.0707 5.97728 24.3075 5.89017 24.5407C5.8085 24.8039 5.60614 25.0108 5.54715 25.2848C5.23318 25.5952 5.06077 26.0099 4.8575 26.3937C4.68509 26.7004 4.71776 27.0607 4.64788 27.3946C4.46004 27.7204 4.19053 28.038 4.19598 28.4346C4.19235 28.6478 4.15061 28.891 4.32937 29.0498C4.186 29.8111 3.95279 30.5507 3.77584 31.3048C3.74771 31.5915 3.72956 31.9037 3.86295 32.1687C4.43373 32.3311 5.03082 32.2531 5.61158 32.2077C5.6506 31.9527 5.65695 31.6932 5.52991 31.4627C5.32302 30.7268 5.52447 29.9264 5.89017 29.273C6.21231 29.2141 6.3212 28.9037 6.39742 28.6269C6.5653 28.0135 6.96457 27.489 7.09252 26.862C7.12156 26.6651 6.99906 26.4627 7.08163 26.2712C7.17238 26.0634 7.22591 25.8103 7.42918 25.6778C7.61521 25.5571 7.70958 25.3511 7.78943 25.1524C7.85023 24.9681 8.08072 24.9355 8.17328 24.774C8.34569 24.4736 8.25858 24.1034 8.41375 23.7957C8.6152 23.3212 8.71683 22.7776 9.1034 22.4074C9.2858 22.2504 9.27491 21.9845 9.42826 21.8112C9.53534 22.0217 9.62427 22.2513 9.79215 22.4237C9.93825 22.4863 10.1025 22.47 10.2595 22.4809C10.6569 23.0634 11.0508 23.6496 11.4437 24.2349C11.6097 24.5081 11.9863 24.5634 12.2649 24.4464C12.3484 24.5852 12.4773 24.7059 12.5154 24.8683C12.4909 25.1188 12.4573 25.3683 12.4437 25.6206C12.2894 25.7658 12.176 25.9654 12.2168 26.1841C12.2685 26.6324 12.3103 27.0825 12.3457 27.5326C12.3983 27.8411 12.5571 28.1278 12.5263 28.45C12.5689 28.4863 12.6542 28.558 12.6959 28.5934C12.6678 29.087 12.8039 29.5843 12.7322 30.0725C12.5099 30.5053 12.4999 31.0017 12.3774 31.4645C12.6642 31.7984 13.1188 31.6133 13.4918 31.6224C13.8774 31.6669 14.2313 31.8792 14.6279 31.8592C15.1424 31.852 15.6624 31.8983 16.1714 31.8048C16.2059 31.6215 16.2186 31.4355 16.1469 31.2585C15.9137 31.1079 15.6605 30.9926 15.3956 30.9137C15.1143 30.8438 14.9573 30.5788 14.7722 30.381C14.6016 30.1587 14.3502 29.9681 14.3194 29.6714C14.2749 29.2667 14.2949 28.8547 14.3076 28.4491C14.3711 28.2758 14.5063 28.1269 14.4954 27.9309C14.5861 27.5471 14.362 27.1741 14.4446 26.7921C14.578 25.9464 14.6823 25.0934 14.656 24.2358C14.6106 24.1714 14.5671 24.1079 14.5235 24.0444C14.5099 23.9037 14.4945 23.7649 14.48 23.6261C14.3684 23.578 14.2422 23.529 14.2177 23.3947C13.9691 22.7005 13.6841 22.0199 13.3647 21.3556C13.0544 20.7694 12.6515 20.2368 12.2068 19.7458C12.1279 19.5145 12.1034 19.2685 12.0462 19.0326C12.0898 18.9446 12.1342 18.8566 12.1796 18.7694C12.3783 18.7967 12.6397 18.99 12.8057 18.8021C12.9954 18.5135 13.1479 18.1887 13.1288 17.8339C13.1261 17.2295 13.2967 16.6315 13.2114 16.029C13.1642 15.7522 12.9419 15.5553 12.6724 15.5036C12.7268 15.3085 12.7785 15.1116 12.8121 14.911C13.5263 15.2785 14.2459 15.7803 15.0616 15.852ZM15.0126 12.4782C15.0843 12.4392 15.156 12.3974 15.2277 12.3557C15.0816 12.2005 15.2186 12.1034 15.3575 12.0181C15.4618 12.0172 15.5662 12.0163 15.6705 12.0145C15.7286 12.1515 15.7622 12.2967 15.7758 12.4455C15.7449 12.4773 15.6805 12.5417 15.6497 12.5744C15.4999 12.8983 15.2785 13.2041 15.0017 13.431C14.911 13.2087 14.8021 12.9936 14.6751 12.7903C14.646 12.6143 14.9001 12.5653 15.0126 12.4782Z" fill="url(#paint1_linear_3_154)"/>
<path d="M26.3857 18.568C26.3857 17.6433 25.6352 16.8929 24.7105 16.8929H18.4284C17.2723 16.8929 16.334 17.8311 16.334 18.9872V23.175C16.334 24.3311 17.2723 25.2694 18.4284 25.2694H24.7105C25.6352 25.2694 26.3857 24.519 26.3857 23.5943V20.244H20.1035C20.1035 21.1687 20.8539 21.9191 21.7786 21.9191H24.2913V23.5934H18.4274V18.568H26.3857Z" fill="url(#paint2_linear_3_154)"/>
<path d="M36.018 16.8919H30.1542C28.9981 16.8919 28.0598 17.8302 28.0598 18.9863V23.1741C28.0598 24.3302 28.9981 25.2685 30.1542 25.2685H36.018C37.1741 25.2685 38.1124 24.3302 38.1124 23.1741V18.9863C38.1124 17.8302 37.1741 16.8919 36.018 16.8919ZM36.018 23.5934H30.1542V18.568H36.018V23.5934Z" fill="url(#paint3_linear_3_154)"/>
<defs>
<linearGradient id="paint0_linear_3_154" x1="20.8711" y1="0.0753173" x2="20.8711" y2="41.4481" gradientUnits="userSpaceOnUse">
<stop stop-color="#1A6DFF"/>
<stop offset="1" stop-color="#C822FF"/>
</linearGradient>
<linearGradient id="paint1_linear_3_154" x1="13.3339" y1="7.41468" x2="13.3339" y2="32.2712" gradientUnits="userSpaceOnUse">
<stop stop-color="#6DC7FF"/>
<stop offset="1" stop-color="#E6ABFF"/>
</linearGradient>
<linearGradient id="paint2_linear_3_154" x1="21.3594" y1="16.8919" x2="21.3594" y2="25.2685" gradientUnits="userSpaceOnUse">
<stop stop-color="#6DC7FF"/>
<stop offset="1" stop-color="#E6ABFF"/>
</linearGradient>
<linearGradient id="paint3_linear_3_154" x1="33.087" y1="16.8919" x2="33.087" y2="25.2685" gradientUnits="userSpaceOnUse">
<stop stop-color="#6DC7FF"/>
<stop offset="1" stop-color="#E6ABFF"/>
</linearGradient>
</defs>
</svg>
