<svg width="42" height="42" viewBox="0 0 42 42" fill="none" xmlns="http://www.w3.org/2000/svg">
<path d="M41.2775 8.43832L9.62678 0.033203C9.10675 -0.10539 8.57691 0.202458 8.43832 0.722488L0.033203 32.3732C-0.10539 32.8932 0.202458 33.4231 0.722488 33.5617L32.3732 41.9668C32.8932 42.1054 33.4231 41.7975 33.5617 41.2775L41.9668 9.62678C42.1054 9.10675 41.7975 8.57691 41.2775 8.43832ZM25.4681 18.5777L23.6774 25.3185C23.6492 25.4252 23.5278 25.4951 23.4211 25.4669L16.6803 23.6762C16.5736 23.648 16.5037 23.5266 16.5319 23.4199L18.3226 16.6791C18.3508 16.5724 18.4722 16.5025 18.5789 16.5307L25.3197 18.3214C25.4264 18.3508 25.4963 18.471 25.4681 18.5777Z" fill="url(#paint0_linear_3_141)"/>
<defs>
<linearGradient id="paint0_linear_3_141" x1="18.2544" y1="39.9246" x2="23.7452" y2="2.07549" gradientUnits="userSpaceOnUse">
<stop stop-color="#92A3B0"/>
<stop offset="0.336" stop-color="#A3B5C4"/>
<stop offset="0.686" stop-color="#AEC2D1"/>
<stop offset="1" stop-color="#B2C6D6"/>
</linearGradient>
</defs>
</svg>
