<svg width="55" height="51" viewBox="0 0 55 51" fill="none" xmlns="http://www.w3.org/2000/svg">
<path d="M7.83531 31.144V20.056H10.9313V31.144H7.83531ZM3.68331 27.064V24.136H15.1073V27.064H3.68331ZM24.1514 34V31.48L30.6314 25.36C31.1434 24.896 31.5194 24.48 31.7594 24.112C31.9994 23.744 32.1594 23.408 32.2394 23.104C32.3354 22.8 32.3834 22.52 32.3834 22.264C32.3834 21.592 32.1514 21.08 31.6874 20.728C31.2394 20.36 30.5754 20.176 29.6954 20.176C28.9914 20.176 28.3354 20.312 27.7274 20.584C27.1354 20.856 26.6314 21.28 26.2154 21.856L23.3834 20.032C24.0234 19.072 24.9194 18.312 26.0714 17.752C27.2234 17.192 28.5514 16.912 30.0554 16.912C31.3034 16.912 32.3914 17.12 33.3194 17.536C34.2634 17.936 34.9914 18.504 35.5034 19.24C36.0314 19.976 36.2954 20.856 36.2954 21.88C36.2954 22.424 36.2234 22.968 36.0794 23.512C35.9514 24.04 35.6794 24.6 35.2634 25.192C34.8634 25.784 34.2714 26.448 33.4874 27.184L28.1114 32.248L27.3674 30.832H36.8474V34H24.1514ZM45.6516 34.288C44.2756 34.288 43.0436 33.952 41.9556 33.28C40.8676 32.592 40.0116 31.6 39.3876 30.304C38.7636 29.008 38.4516 27.44 38.4516 25.6C38.4516 23.76 38.7636 22.192 39.3876 20.896C40.0116 19.6 40.8676 18.616 41.9556 17.944C43.0436 17.256 44.2756 16.912 45.6516 16.912C47.0436 16.912 48.2756 17.256 49.3476 17.944C50.4356 18.616 51.2916 19.6 51.9156 20.896C52.5396 22.192 52.8516 23.76 52.8516 25.6C52.8516 27.44 52.5396 29.008 51.9156 30.304C51.2916 31.6 50.4356 32.592 49.3476 33.28C48.2756 33.952 47.0436 34.288 45.6516 34.288ZM45.6516 31C46.3076 31 46.8756 30.816 47.3556 30.448C47.8516 30.08 48.2356 29.496 48.5076 28.696C48.7956 27.896 48.9396 26.864 48.9396 25.6C48.9396 24.336 48.7956 23.304 48.5076 22.504C48.2356 21.704 47.8516 21.12 47.3556 20.752C46.8756 20.384 46.3076 20.2 45.6516 20.2C45.0116 20.2 44.4436 20.384 43.9476 20.752C43.4676 21.12 43.0836 21.704 42.7956 22.504C42.5236 23.304 42.3876 24.336 42.3876 25.6C42.3876 26.864 42.5236 27.896 42.7956 28.696C43.0836 29.496 43.4676 30.08 43.9476 30.448C44.4436 30.816 45.0116 31 45.6516 31Z" fill="#FBFBFB"/>
</svg>
