<svg width="43" height="42" viewBox="0 0 43 42" fill="none" xmlns="http://www.w3.org/2000/svg">
<path d="M6.19935 26.3398C6.30767 27.2739 6.88509 28.4847 7.39493 29.5216H6.92584H3.83401C3.60245 29.5216 3.37784 29.4982 3.16914 29.4422C2.0789 29.2051 1.21327 28.3738 0.889275 27.3054C0.788898 27.0042 0.742188 26.6878 0.742188 26.355V18.8864C0.742188 18.0154 1.43787 17.3031 2.2886 17.3031H3.7237V15.2751C3.7237 12.0465 4.64598 9.54747 7.69905 9.15979H8.70878C7.88986 11.0198 6.92683 13.1068 6.92683 15.2751V22.3979H6.93379C6.45476 23.45 6.15264 24.5113 6.15264 25.5634C6.15264 25.8015 6.16854 26.062 6.19935 26.3398Z" fill="#90A4AE"/>
<path d="M37.0271 26.3398C36.9188 27.2739 36.3414 28.4847 35.8316 29.5216H36.3006H39.3925C39.624 29.5216 39.8486 29.4982 40.0573 29.4422C41.1476 29.2051 42.0132 28.3738 42.3372 27.3054C42.4376 27.0042 42.4843 26.6878 42.4843 26.356V18.8874C42.4843 18.0164 41.7886 17.3041 40.9379 17.3041H39.5028V15.2751C39.5028 12.0465 38.5805 9.54747 35.5274 9.15979H34.5177C35.3366 11.0198 36.2996 13.1068 36.2996 15.2751V22.3979H36.2917C36.7707 23.45 37.0729 24.5113 37.0729 25.5634C37.0738 25.8015 37.0579 26.062 37.0271 26.3398Z" fill="#90A4AE"/>
<path d="M36.5203 15.0371V22.1598H36.5124C35.9081 20.838 35.0375 19.5244 34.1659 18.2026C32.5967 15.8287 27.5748 13.1984 21.6048 13.1984C14.6867 13.1984 10.6199 16.3639 9.05067 18.7378C8.18007 20.0596 7.30848 21.3732 6.70422 22.695V22.1598V15.0371C6.70422 12.8687 7.1594 10.795 7.99124 8.93493C8.45437 7.88993 9.02682 6.90903 9.70164 6.01462C12.4088 2.36677 16.74 0 21.6128 0C26.4776 0 30.8087 2.35863 33.5229 6.00648C34.1977 6.90903 34.7702 7.88993 35.2333 8.93493C36.0651 10.795 36.5203 12.8687 36.5203 15.0371Z" fill="#455A64"/>
<path d="M36.7112 22.0702C36.099 20.7423 35.2165 19.4226 34.3339 18.0958C33.3311 16.5908 32.8243 13.8333 32.6275 12.0038C32.5162 10.9669 31.6695 10.1814 30.6518 10.1804L12.5928 10.1773C11.5631 10.1773 10.6896 10.9771 10.6041 12.0282C10.453 13.8964 10.0277 16.3934 8.8917 18.0958C8.00918 19.4236 7.12665 20.7434 6.51445 22.0702C6.0215 23.1274 5.71143 24.1928 5.71143 25.25C5.71143 26.2909 6.01355 27.7938 6.68936 29.1451C7.55599 30.8942 9.04277 32.4043 11.2769 32.4043C14.2823 32.4043 14.4174 36.0368 14.6003 38.4942C14.656 39.298 14.656 39.9655 14.656 40.3552C14.656 41.7503 21.6128 41.7421 21.6128 41.7421C21.6128 41.7421 28.5697 41.7503 28.5697 40.3552C28.5697 39.9655 28.5697 39.298 28.6253 38.4952C28.8082 36.0389 28.9434 32.4053 31.9487 32.4053C34.1829 32.4053 35.6696 30.8953 36.5363 29.1461C37.2121 27.7938 37.5142 26.292 37.5142 25.25C37.5142 24.1928 37.2041 23.1274 36.7112 22.0702Z" fill="#D7CCC8"/>
<path d="M24.5783 33.4238C24.5783 34.1788 24.0685 34.598 23.3887 34.598C22.4545 34.598 21.7747 33.0036 21.6048 32.333C21.6048 33.1725 20.925 34.598 19.8208 34.598C19.1411 34.598 18.6312 34.1788 18.6312 33.4238C18.6312 31.8293 20.5006 28.7259 21.6048 28.4735C22.7099 28.8928 24.5783 31.8293 24.5783 33.4238Z" fill="#263238"/>
<path d="M17.0749 20.1674C14.3776 19.1499 11.9804 20.4727 11.1814 23.1183C9.88246 26.9849 11.3812 28.8164 12.5797 29.2235C15.7759 30.1392 18.4732 28.9182 19.3716 25.8656C20.0713 23.9323 19.2722 20.9815 17.0749 20.1674Z" fill="#263238"/>
<path d="M26.1437 20.1674C23.9463 20.9815 23.1473 23.9323 23.8459 25.8656C24.7454 28.9182 27.4416 30.1392 30.6378 29.2235C31.8364 28.8164 33.3351 26.9849 32.0361 23.1183C31.2381 20.4727 28.841 19.1499 26.1437 20.1674Z" fill="#263238"/>
</svg>
