<svg width="43" height="42" viewBox="0 0 43 42" fill="none" xmlns="http://www.w3.org/2000/svg">
<path d="M37.1328 1.60547C37.4284 1.60547 37.668 1.36588 37.668 1.07032C37.668 0.774761 37.4284 0.535164 37.1328 0.535164C36.8373 0.535164 36.5977 0.774761 36.5977 1.07032C36.5977 1.36588 36.8373 1.60547 37.1328 1.60547Z" fill="#F1BC19"/>
<path d="M21.6474 40.6718C32.5831 40.6718 41.4482 31.8067 41.4482 20.8711C41.4482 9.93541 32.5831 1.07031 21.6474 1.07031C10.7118 1.07031 1.84668 9.93541 1.84668 20.8711C1.84668 31.8067 10.7118 40.6718 21.6474 40.6718Z" fill="#C0E5E4"/>
<path d="M40.3437 4.28124C41.526 4.28124 42.4844 3.32286 42.4844 2.14062C42.4844 0.958389 41.526 0 40.3437 0C39.1615 0 38.2031 0.958389 38.2031 2.14062C38.2031 3.32286 39.1615 4.28124 40.3437 4.28124Z" fill="#F1BC19"/>
<path d="M1.8125 10.7031C2.40362 10.7031 2.88281 10.2239 2.88281 9.6328C2.88281 9.04168 2.40362 8.56249 1.8125 8.56249C1.22138 8.56249 0.742188 9.04168 0.742188 9.6328C0.742188 10.2239 1.22138 10.7031 1.8125 10.7031Z" fill="#00A5A5"/>
<path d="M37.668 36.9257C38.2591 36.9257 38.7383 36.4465 38.7383 35.8554C38.7383 35.2643 38.2591 34.7851 37.668 34.7851C37.0769 34.7851 36.5977 35.2643 36.5977 35.8554C36.5977 36.4465 37.0769 36.9257 37.668 36.9257Z" fill="#FBCD59"/>
<path d="M8.76953 36.9257C9.95176 36.9257 10.9102 35.9673 10.9102 34.7851C10.9102 33.6029 9.95176 32.6445 8.76953 32.6445C7.5873 32.6445 6.62891 33.6029 6.62891 34.7851C6.62891 35.9673 7.5873 36.9257 8.76953 36.9257Z" fill="#FBCD59"/>
<path d="M9.30469 41.7421C9.8958 41.7421 10.375 41.2629 10.375 40.6718C10.375 40.0807 9.8958 39.6015 9.30469 39.6015C8.71357 39.6015 8.23438 40.0807 8.23438 40.6718C8.23438 41.2629 8.71357 41.7421 9.30469 41.7421Z" fill="#00A5A5"/>
<path d="M26.1621 38.5312C26.901 38.5312 27.5 37.9322 27.5 37.1933C27.5 36.4544 26.901 35.8554 26.1621 35.8554C25.4232 35.8554 24.8242 36.4544 24.8242 37.1933C24.8242 37.9322 25.4232 38.5312 26.1621 38.5312Z" fill="white"/>
<path d="M7.17955 31.5431C7.46653 31.5431 7.69918 31.3105 7.69918 31.0235C7.69918 30.7365 7.46653 30.5039 7.17955 30.5039C6.89256 30.5039 6.65991 30.7365 6.65991 31.0235C6.65991 31.3105 6.89256 31.5431 7.17955 31.5431Z" fill="white"/>
<path d="M40.3437 11.2383C40.6393 11.2383 40.8789 10.9987 40.8789 10.7031C40.8789 10.4076 40.6393 10.168 40.3437 10.168C40.0482 10.168 39.8086 10.4076 39.8086 10.7031C39.8086 10.9987 40.0482 11.2383 40.3437 11.2383Z" fill="#F1BC19"/>
<path d="M36.5977 31.5742C37.1888 31.5742 37.668 31.095 37.668 30.5039C37.668 29.9128 37.1888 29.4336 36.5977 29.4336C36.0065 29.4336 35.5273 29.9128 35.5273 30.5039C35.5273 31.095 36.0065 31.5742 36.5977 31.5742Z" fill="white"/>
<path d="M37.1328 12.8437C37.4284 12.8437 37.668 12.6041 37.668 12.3086C37.668 12.013 37.4284 11.7734 37.1328 11.7734C36.8373 11.7734 36.5977 12.013 36.5977 12.3086C36.5977 12.6041 36.8373 12.8437 37.1328 12.8437Z" fill="white"/>
<path d="M17.3322 10.1679C17.3322 10.1679 21.0782 10.1679 21.0782 13.3789C21.0782 13.3789 21.0782 10.1679 24.8243 10.1679C24.8243 10.1679 21.0782 10.1679 21.0782 6.42186C21.0782 6.42186 21.0782 10.1679 17.3322 10.1679Z" fill="#8889B9"/>
<path d="M21.0782 13.7535C20.8749 13.7535 20.7095 13.5914 20.7036 13.3896C20.7036 13.3891 20.7036 13.388 20.7036 13.3875C20.7036 13.3864 20.7036 13.3859 20.7036 13.3859C20.7036 13.3853 20.7036 13.3853 20.7036 13.3848V13.3843C20.7036 13.3843 20.7036 13.3837 20.7036 13.3832C20.7036 13.3827 20.7036 13.3827 20.7036 13.3821C20.7036 13.3816 20.7036 13.3805 20.7036 13.38C20.7036 10.5865 17.4691 10.5442 17.3316 10.5437C17.125 10.542 16.9575 10.3745 16.9575 10.168C16.9575 9.96568 17.1186 9.80032 17.3193 9.79336C17.3193 9.79336 17.3198 9.79336 17.3204 9.79336H17.3214C17.322 9.79336 17.3225 9.79336 17.323 9.79336C17.323 9.79336 17.3241 9.79336 17.3252 9.79336C17.3257 9.79336 17.3257 9.79336 17.3262 9.79336C17.3268 9.79336 17.3268 9.79336 17.3268 9.79336C17.3273 9.79336 17.3273 9.79336 17.3278 9.79336H17.3289C17.3295 9.79336 17.33 9.79336 17.33 9.79336C17.3311 9.79336 17.3316 9.79336 17.3327 9.79336C20.6512 9.79336 20.7036 6.55888 20.7041 6.42135C20.7047 6.21478 20.8722 6.04781 21.0788 6.04781C21.281 6.04781 21.4464 6.20836 21.4528 6.40904C21.4528 6.40957 21.4528 6.41064 21.4534 6.41118V6.41172C21.4534 6.41172 21.4534 6.41225 21.4534 6.41279C21.4534 6.41279 21.4534 6.41386 21.4534 6.41439C21.4534 6.41493 21.4534 6.41493 21.4534 6.41546V6.41653C21.4534 6.41707 21.4534 6.41814 21.4534 6.41867C21.4534 6.41921 21.4534 6.41974 21.4534 6.42081C21.4534 9.73985 24.6878 9.79176 24.8259 9.79229C25.0325 9.79283 25.1994 9.96033 25.1994 10.1669C25.1994 10.3692 25.0389 10.5346 24.8377 10.5415C24.8366 10.5415 24.835 10.5415 24.835 10.5415C24.8345 10.5415 24.8345 10.5415 24.8339 10.5415C24.8339 10.5415 24.8339 10.5415 24.8334 10.5415C24.8334 10.5415 24.8329 10.5415 24.8318 10.5415C24.8313 10.5415 24.8313 10.5415 24.8307 10.5415C24.8302 10.5415 24.8297 10.5415 24.8291 10.5415C24.8281 10.542 24.8264 10.5415 24.8264 10.5415C24.8259 10.5415 24.8248 10.5415 24.8243 10.5415C21.5154 10.5415 21.4539 13.2542 21.4528 13.3784C21.4523 13.586 21.2848 13.7535 21.0782 13.7535ZM19.226 10.1653C19.9801 10.4687 20.702 10.9852 21.1103 11.8082C21.4234 11.1703 21.9778 10.4939 22.9598 10.1096C22.2309 9.78641 21.4694 9.22075 21.044 8.23285C20.733 8.95692 20.1872 9.72272 19.226 10.1653Z" fill="#472B29"/>
<path d="M11.3859 15.1299C11.3859 15.1299 9.61238 14.7216 8.76951 13.914C8.44521 13.6031 8.23436 12.8437 8.76951 12.3086C9.62362 11.4545 11.9601 10.527 15.1914 10.168L17.332 12.8437C17.332 12.8437 11.0932 12.3016 10.375 13.3789C9.81146 14.2239 11.3859 15.1299 11.3859 15.1299Z" fill="#8889B9"/>
<path d="M11.3859 15.5045C11.3581 15.5045 11.3303 15.5013 11.3019 15.4949C11.2254 15.4772 9.41762 15.0534 8.51053 14.1843C8.24189 13.9269 8.07278 13.5143 8.06796 13.1065C8.06368 12.7014 8.21459 12.3337 8.50465 12.0437C9.53643 11.0119 12.1453 10.1294 15.1502 9.79549C15.2781 9.78051 15.4044 9.83349 15.4841 9.93356L17.6248 12.6093C17.7184 12.7265 17.7329 12.8882 17.6622 13.0203C17.5916 13.152 17.4573 13.2323 17.2994 13.2167C14.394 12.9647 11.0429 13.053 10.6865 13.5865C10.6303 13.6716 10.6153 13.7492 10.6378 13.845C10.7197 14.1971 11.2548 14.621 11.5727 14.8051C11.7332 14.8977 11.8017 15.0946 11.7338 15.2664C11.6765 15.413 11.5368 15.5045 11.3859 15.5045ZM15.0282 10.564C11.9029 10.9391 9.77136 11.8366 9.03445 12.5735C8.88835 12.7196 8.81504 12.8967 8.81718 13.0985C8.81985 13.3361 8.92849 13.5475 9.0291 13.6433C9.28062 13.8841 9.63222 14.0885 9.99024 14.2533C9.95599 14.1768 9.92816 14.0976 9.9089 14.0163C9.83932 13.7193 9.89338 13.4271 10.0641 13.1707C10.7304 12.171 14.4781 12.2711 16.5015 12.4044L15.0282 10.564Z" fill="#472B29"/>
<path d="M31.9895 13.3789C31.2713 12.3016 25.0325 12.8438 25.0325 12.8438L27.1731 10.168C30.4044 10.5271 32.7409 11.4545 33.595 12.3086C34.1301 12.8438 33.9193 13.6031 33.595 13.9141C32.7521 14.7216 30.9786 15.1299 30.9786 15.1299C30.9786 15.1299 32.5525 14.2239 31.9895 13.3789Z" fill="#8889B9"/>
<path d="M30.9785 15.5045C30.8276 15.5045 30.6879 15.413 30.6307 15.2669C30.5627 15.0946 30.6312 14.8982 30.7917 14.8056C31.1096 14.621 31.6448 14.1977 31.7267 13.8456C31.7491 13.7492 31.7347 13.6722 31.678 13.5871C31.3221 13.0535 27.9704 12.9647 25.065 13.2173C24.9115 13.2323 24.7723 13.1525 24.7022 13.0209C24.6316 12.8887 24.6466 12.7271 24.7397 12.6099L26.8803 9.9341C26.9606 9.83402 27.0901 9.78158 27.2142 9.79603C30.2191 10.13 32.828 11.0124 33.8598 12.0442C34.1498 12.3343 34.3008 12.7019 34.2965 13.107C34.2917 13.5148 34.1226 13.9274 33.8539 14.1848C32.9468 15.0539 31.1391 15.4778 31.0625 15.4954C31.0342 15.5013 31.0063 15.5045 30.9785 15.5045ZM32.3009 13.1713C32.4716 13.4276 32.5256 13.7198 32.4561 14.0168C32.4368 14.0981 32.409 14.1773 32.3747 14.2539C32.7328 14.0885 33.0843 13.8846 33.3359 13.6438C33.4365 13.548 33.5451 13.3366 33.5478 13.099C33.5499 12.8967 33.4766 12.7201 33.3305 12.574C32.5936 11.8371 30.4621 10.9391 27.3368 10.5645L25.864 12.4054C27.8864 12.2711 31.6346 12.171 32.3009 13.1713Z" fill="#472B29"/>
<path d="M21.4163 15.5195C16.5774 15.4082 12.6327 19.1024 12.5182 23.7978C12.515 23.9263 12.515 24.0552 12.5177 24.1837C12.5177 30.3037 16.2119 34.25 22.5315 34.25C25.286 34.25 27.1258 33.3637 28.5702 31.5742C28.5702 31.5742 28.5702 28.5495 28.5702 27.8281C28.5702 26.1632 30.7108 26.3125 30.7108 26.3125H21.7882C21.7882 26.3125 24.8241 26.7348 24.8241 28.3633C24.8241 29.0846 24.8241 32.1093 24.8241 32.1093C24.3923 32.5284 23.1416 32.8238 22.5315 32.8066C17.5808 32.8066 16.2616 26.2467 16.2616 24.082C16.2616 21.9173 17.6161 17.125 22.5315 17.125C28.1084 17.4857 28.5702 22.4765 28.5702 22.4765V16.5898C27.4967 16.5674 26.8882 16.5636 25.8778 16.2104C24.5737 15.77 22.7964 15.466 21.4163 15.5195Z" fill="#8889B9"/>
<path d="M22.5316 34.6246C16.1236 34.6246 12.1431 30.6237 12.1431 24.1837C12.1399 24.0579 12.1405 23.9231 12.1437 23.7887C12.263 18.9108 16.4356 15.024 21.4131 15.1449C22.7654 15.0935 24.5684 15.3729 25.9973 15.8561C26.9279 16.1815 27.4834 16.1927 28.4921 16.2136L28.5778 16.2152C28.7817 16.2195 28.9449 16.3859 28.9449 16.5898V22.4765C28.9449 22.6761 28.7876 22.841 28.5879 22.8501C28.5821 22.8506 28.5762 22.8506 28.5697 22.8506C28.3782 22.8506 28.216 22.705 28.1973 22.5113C28.1791 22.3208 27.6873 17.8335 22.5075 17.4985C17.7195 17.4996 16.6363 22.3743 16.6363 24.082C16.6363 25.7388 17.6852 32.4326 22.5316 32.4326C23.0432 32.4476 24.03 32.2073 24.4496 31.9301V28.3632C24.4496 27.2983 22.4914 26.7899 21.7369 26.6834C21.5421 26.6556 21.4013 26.4827 21.4147 26.2863C21.4281 26.0899 21.5919 25.9379 21.7883 25.9379H30.4241C30.6028 25.9294 30.7211 25.9379 30.7371 25.939C30.9383 25.9529 31.0925 26.1242 31.085 26.3259C31.078 26.5277 30.9127 26.6877 30.7109 26.6877H30.4246C30.0741 26.7064 29.5443 26.7979 29.2323 27.0906C29.0391 27.2715 28.9449 27.5129 28.9449 27.8281V31.5742C28.9449 31.6598 28.9155 31.7428 28.8619 31.8091C27.2902 33.7565 25.3379 34.6246 22.5316 34.6246ZM21.2081 15.8914C16.7112 15.8914 12.9999 19.4026 12.8929 23.8064C12.8897 23.9289 12.8892 24.0515 12.8924 24.1746C12.8924 30.2518 16.4956 33.8748 22.5316 33.8748C25.0404 33.8748 26.7936 33.1229 28.1957 31.4399V27.8281C28.1957 27.3753 28.3263 26.9927 28.5837 26.6871H24.0659C24.6883 27.0569 25.1988 27.5942 25.1988 28.3632V32.1093C25.1988 32.2105 25.1576 32.3073 25.0848 32.378C24.5588 32.8885 23.2043 33.1952 22.5209 33.1818C17.5605 33.1818 15.8871 26.9328 15.8871 24.082C15.8871 21.2473 17.6911 16.7504 22.5316 16.7504C25.7848 16.9607 27.4015 18.6791 28.1957 20.1738V16.9564C27.3068 16.9355 26.6972 16.8943 25.7543 16.5641C24.4255 16.1151 22.6852 15.8417 21.4313 15.8941C21.4222 15.8941 21.4158 15.8941 21.4078 15.8941C21.3409 15.8925 21.274 15.8914 21.2081 15.8914Z" fill="#472B29"/>
</svg>
