<svg width="140" height="140" viewBox="0 0 140 140" fill="none" xmlns="http://www.w3.org/2000/svg">
<path d="M74.7143 46.1428L9 26.1428L14.7143 100.429L74.7143 131.857L123.286 97.5714L129 23.2857L74.7143 46.1428Z" fill="#5D4037"/>
<path d="M9 26.1429L14.7143 100.429L74.7143 131.857V46.1429L9 26.1429Z" fill="#8D6E63"/>
<path d="M80.4286 63.7371V51.8571L86.1429 49.3629V57.5714L91.8572 54.7143V66.1428L100.429 62.6343V43.2857L106.143 40.86V54.7143L111.857 52.3628V46.1428L117.571 43.2857V36.0486L123.286 33.6428V40.4286L127.857 38.1428L129 23.2857L74.7144 46.1428V66.1428L80.4286 63.7371Z" fill="#43A047"/>
<path d="M9 26.1429L66.1429 9L129 23.2857L74.7143 46.1429L9 26.1429Z" fill="#B2FF59"/>
<path d="M9 26.1429L10.1429 40.8115L14.7143 42.1629V38.7515L20.4286 40.4286V49.62L29 52.2286V38.6372L34.7143 40.4286V53.9686L40.4286 55.7086V47.4257L46.1429 49.1657V57.4486L51.8571 59.1857V55.7972L57.5714 57.5715V53.0686L63.2857 54.7143V62.6657L74.7143 66.1429V46.1429L9 26.1429Z" fill="#66BB6A"/>
<path d="M137.287 78.6804L139.8 74.483L138.401 70H42.1742L41.7173 73.2837L40.8321 70H18.4173L17.6463 73.0838H15.7903L15.362 74.7971L12.8778 70H5.56802L0 87.8748L4.42586 93.9568H11.7357L12.6208 90.5874H15.5619L17.5321 93.9568H40.0612L40.6037 90.0449L41.8601 93.9568H117.128L120.184 87.6463H122.925L125.495 82.6494L128.236 93.9853H135.803L140 87.8748L137.287 78.6804ZM72.27 82.9349V80.7934H78.7518L78.8089 82.9349H72.27Z" fill="#010202"/>
<path d="M5.05406 92.729L1.37061 87.6464H7.33838L10.7363 92.729H5.05406Z" fill="#3D3938"/>
<path d="M29.2107 87.6464H23.2429L25.8128 92.729H31.4665L29.2107 87.6464Z" fill="#3D3938"/>
<path d="M31.2095 87.6464L33.351 92.729H39.0047L37.1772 87.6464H31.2095Z" fill="#3D3938"/>
<path d="M49.1128 87.6464L50.3121 92.729H63.504L63.0471 87.6464H49.1128Z" fill="#3D3938"/>
<path d="M78.9517 87.6464L78.5805 92.729H65.3885L65.0173 87.6464H78.9517Z" fill="#3D3938"/>
<path d="M80.9505 87.6464H86.9183L86.1188 92.729H80.4651L80.9505 87.6464Z" fill="#3D3938"/>
<path d="M88.8886 87.6464L88.0034 92.729H93.6571L94.8564 87.6464H88.8886Z" fill="#3D3938"/>
<path d="M96.855 87.6464L95.5415 92.729H101.195L102.823 87.6464H96.855Z" fill="#3D3938"/>
<path d="M104.821 87.6464L103.08 92.729H108.762L110.789 87.6464H104.821Z" fill="#3D3938"/>
<path d="M112.759 87.6464L110.646 92.729H116.3L118.727 87.6464H112.759Z" fill="#3D3938"/>
<path d="M132.662 87.6464L129.492 92.729H135.146L138.629 87.6464H132.662Z" fill="#3D3938"/>
<path d="M41.1462 87.6464L42.7738 92.729H48.4275L47.114 87.6464H41.1462Z" fill="#3D3938"/>
<path d="M15.3049 87.6464H21.2727L23.9282 92.729H18.2745L15.3049 87.6464Z" fill="#3D3938"/>
<path d="M17.0182 80.7934H15.0765L14.1913 84.1628H10.2794L11.2217 80.7934H9.28005L7.30983 87.6464H1.37061L6.48176 71.2278H12.0212L11.1361 74.3402H13.0206L12.1354 77.5097H15.9331L16.7612 74.3402H18.6457L19.4167 71.2564H24.9562L21.2727 87.6749H15.3049L17.0182 80.7934Z" fill="#D0C5C0"/>
<path d="M26.7836 71.2563H32.3231L29.2393 87.6749H23.2715L26.7836 71.2563Z" fill="#D0C5C0"/>
<path d="M50.7689 71.2563H63.6753L63.5611 74.3402H56.08L55.8515 77.5097H63.4469L63.3041 80.7934H55.5945L55.3376 84.1627H63.1613L63.0186 87.6463H49.1128L50.7689 71.2563Z" fill="#D0C5C0"/>
<path d="M65.5313 71.2563H78.4377L78.5233 74.3402H71.0422L71.0137 84.1627H78.8374L78.9517 87.6463H65.0173L65.5313 71.2563Z" fill="#D0C5C0"/>
<path d="M88.3745 80.7934H86.4328L86.8896 87.6464H80.9219L80.2651 71.2278H93.1715L93.7997 77.4812H91.9437L92.0865 79.1087H93.9996L94.8562 87.6178H88.8884L88.3745 80.7934ZM86.033 74.3402L86.2329 77.5097H88.146L87.9176 74.3402H86.033Z" fill="#D0C5C0"/>
<path d="M109.818 71.2563H122.725L123.467 74.3402H115.986L116.643 77.5097H124.238L125.038 80.7934H117.328L118.756 87.6463H112.788L109.818 71.2563Z" fill="#D0C5C0"/>
<path d="M129.092 74.3402H125.352L124.581 71.2563H137.487L138.458 74.3402H134.717L138.629 87.6463H132.662L129.092 74.3402Z" fill="#D0C5C0"/>
<path d="M41.8601 82.4495H39.9184L40.4038 79.1373H38.4907L37.1772 87.6464H31.2095L34.1505 71.2278H39.69L39.2046 74.3117H41.0891L40.6323 77.4812H42.5454L43.402 71.2278H48.9415L47.1426 87.6464H41.1748L41.8601 82.4495Z" fill="#D0C5C0"/>
<path d="M107.963 71.2563H95.0562L96.8551 87.6749H102.823L102.109 82.4781H104.051L104.793 87.6749H110.789L107.963 71.2563ZM103.622 77.2527H104.565L105.021 80.2508H103.737L103.565 79.1658H101.652L101.795 80.2508H100.51L100.11 77.2527H101.052L100.938 76.4532H98.7396L98.4826 74.3402H100.967L101.224 76.1962H103.108L102.851 74.3402H105.336L105.678 76.4532H103.48L103.622 77.2527Z" fill="#D0C5C0"/>
</svg>
