<svg width="207" height="140" viewBox="0 0 207 140" fill="none" xmlns="http://www.w3.org/2000/svg">
<path d="M6.65477 53.3112C6.57065 52.7504 6.90713 51.7689 7.63618 52.0493C8.42131 52.0493 8.16895 52.9186 8.25307 53.4514L9.06624 53.7598C9.57096 54.2365 10.272 54.4608 10.9449 54.3486C10.8889 54.4889 10.7487 54.7412 10.6926 54.8534C10.9169 54.8814 11.3375 54.9655 11.5618 54.9936L11.3375 55.1338C10.5524 55.0497 9.12232 54.5169 9.0382 55.7507L8.22503 55.6105C8.14091 56.5078 8.44935 57.377 9.09428 58.0219C9.93549 58.8351 9.48684 60.0689 9.48684 61.1064C9.76724 61.527 10.0757 61.9756 10.3841 62.3962C9.71116 62.5364 9.23448 62.0597 8.72975 61.6672C8.67367 60.9381 8.56151 60.2091 8.50543 59.48C8.08482 58.8912 7.60814 58.3584 7.04733 57.9098C5.8416 58.8071 4.71999 59.8165 3.93486 61.1064L2.92541 61.2185C3.14973 60.9942 3.57034 60.5736 3.79466 60.3493C3.28993 60.125 2.75717 60.0128 2.25244 59.7604C2.78521 59.5641 3.45817 59.5081 3.87878 59.9567C4.49566 58.6108 5.39296 57.405 6.15005 56.1152C6.122 55.8067 6.09396 55.4703 6.06592 55.1618H4.66391C4.91627 54.1243 5.8416 53.7037 6.65477 53.3112ZM112.759 63.7702C114.161 63.7702 115.535 63.7702 116.937 63.7702C116.264 65.705 115.619 67.6398 114.946 69.5465C114.217 67.6398 113.488 65.705 112.759 63.7702ZM122.433 63.9665C122.966 64.0226 123.499 63.9384 124.003 64.1347C123.975 64.4432 123.891 65.0881 123.863 65.4246L123.751 65.5928L123.611 65.733H122.882L122.658 65.5928L122.125 65.1722L122.938 65.1442C122.77 64.6955 122.601 64.331 122.433 63.9665ZM123.302 64.6114C124.452 64.6394 122.77 65.6209 123.302 64.6114ZM112.17 86.6231C112.984 84.3798 113.741 82.1086 114.554 79.8653C115.423 82.1086 116.264 84.3798 117.134 86.6231C115.479 86.6231 113.825 86.6231 112.17 86.6231Z" fill="white"/>
<path d="M64.1373 56.0592H65.7076C65.1748 56.7041 64.6981 57.5734 63.7448 57.4051C63.8289 56.9285 63.9691 56.4798 64.1373 56.0592ZM58.3049 56.0592H59.735L60.9968 57.6575L62.2586 56.0592H63.6606C62.9596 56.9565 62.2306 57.8538 61.5296 58.7791C61.5296 59.3399 61.5296 59.8727 61.5296 60.4335H60.436C60.436 59.8727 60.436 59.3399 60.436 58.7791C59.735 57.8257 59.034 56.9285 58.3049 56.0592Z" fill="white"/>
<path d="M171.84 57.2649C174.588 55.5825 177.953 55.6386 181.037 55.9751C183.168 56.2274 185.412 57.0967 186.561 59.0034C188.047 61.2747 187.066 64.0507 186.842 66.5182C184.655 66.5182 182.439 66.5182 180.252 66.4902C180.364 65.2284 180.897 63.7983 180.252 62.5926C179.299 61.7794 177.869 62.0037 176.719 62.1439C175.401 62.3122 174.56 63.5459 174.42 64.8078C173.747 69.2942 173.186 73.8087 172.541 78.2951C172.485 79.0522 172.317 79.8654 172.681 80.5944C173.13 81.4357 174.196 81.4357 175.037 81.4637C176.046 81.4637 177.336 81.4917 177.925 80.4823C178.57 79.2485 178.738 77.8465 179.047 76.5006C177.392 75.9117 175.766 75.2948 174.111 74.734C178.149 73.8367 182.187 72.9675 186.225 72.0422C185.832 74.9023 185.552 77.7904 184.991 80.6225C184.57 82.7255 183.673 84.8566 181.794 86.0343C179.383 87.5484 176.411 87.4082 173.691 87.3802C171.476 87.3802 169.036 86.8755 167.494 85.137C165.727 83.2022 165.671 80.3701 165.952 77.9026C166.597 73.304 167.214 68.6773 167.886 64.1067C168.307 61.4429 169.513 58.723 171.84 57.2649ZM11.5057 57.1808C11.5057 56.7882 11.5057 56.4237 11.5057 56.0311C13.2722 56.0311 15.0387 56.0311 16.8053 56.0311V57.1808H14.7023C14.7023 58.2463 14.7023 59.3119 14.7023 60.4054H13.6087C13.6087 59.3399 13.6087 58.2463 13.6087 57.1808H11.5057ZM17.31 56.0311C18.7961 56.0592 20.2823 55.9751 21.7404 56.0592C22.7498 56.1713 22.6377 57.349 22.6377 58.0781C22.5816 58.8071 22.862 59.8727 22.0208 60.2652C20.787 60.4615 19.5532 60.3493 18.3195 60.3493C17.8147 60.3493 17.3941 59.9568 17.3381 59.4521C17.2539 58.3304 17.31 57.1808 17.31 56.0311ZM18.3755 57.1808C18.3755 57.8818 18.3755 58.5548 18.4036 59.2558C19.4691 59.2558 20.5066 59.2558 21.5441 59.2558C21.5441 58.5548 21.5441 57.8538 21.5441 57.1808C20.4786 57.1808 19.4411 57.1808 18.3755 57.1808ZM37.1065 56.0311H38.2C38.2 57.0967 38.2 58.1902 38.2 59.2558C39.0413 59.2558 39.8825 59.2558 40.7237 59.2277C40.5835 59.5081 40.275 60.0689 40.1348 60.3493C39.1254 60.3774 38.144 60.3774 37.1345 60.3493C37.1065 58.9473 37.1065 57.4892 37.1065 56.0311ZM42.8547 56.3957C43.724 55.7507 44.9578 56.1433 45.9672 56.0592C45.9672 57.5173 45.9672 58.9754 45.9672 60.4054H44.8736C44.8736 60.125 44.8736 59.5642 44.8736 59.2838C44.0044 59.2838 43.1351 59.2838 42.2659 59.2838L41.5929 60.4054H40.3031C41.1723 59.0314 41.8733 57.6294 42.8547 56.3957ZM43.5557 57.1527C43.3595 57.4612 43.1632 57.7696 42.9949 58.0781H44.8736C44.8736 57.8257 44.8736 57.3771 44.8736 57.1247L43.5557 57.1527ZM46.6121 55.919L47.7618 56.1433C48.8273 56.9845 49.7807 57.9659 50.8182 58.8632C50.8182 57.9098 50.8182 56.9565 50.8182 56.0031H51.8837C51.8837 57.4612 51.8837 58.8912 51.8837 60.3493L50.8462 60.3774C49.7807 59.424 48.7152 58.4706 47.6496 57.5173C47.6496 58.4706 47.6496 59.424 47.6496 60.3493H46.5561C46.5841 58.8912 46.5841 57.4051 46.6121 55.919ZM52.4726 56.0031C54.2391 56.0031 56.0056 56.0031 57.8002 56.0031C57.7722 56.2835 57.6881 56.8723 57.66 57.1527C56.286 57.1527 54.9121 57.1527 53.5381 57.1527C53.5381 57.8257 53.5381 58.5267 53.5381 59.2277C54.9121 59.2558 56.286 59.2558 57.66 59.2277C57.7161 59.6203 57.7722 59.9848 57.8283 60.3774C56.3982 60.3493 54.9681 60.4054 53.5381 60.3774C53.0894 60.4335 52.781 60.0689 52.5847 59.7325C52.3884 58.4706 52.5006 57.2088 52.4726 56.0031ZM129.527 56.9565C131.939 55.6947 134.799 55.6386 137.435 56.0592C139.229 56.3396 141.136 57.2088 141.949 58.9473C142.762 60.6858 142.734 62.7328 142.538 64.6395C140.407 64.6395 138.276 64.6395 136.145 64.6395C136.089 63.6581 136.537 62.3122 135.528 61.7233C134.49 61.3308 133.06 61.3868 132.359 62.3682C131.771 63.4899 131.911 64.8638 132.696 65.8452C134.659 68.5652 137.575 70.4719 139.201 73.4442C141.024 76.3604 140.884 80.2019 139.426 83.2583C138.136 85.838 135.22 87.1278 132.444 87.24C129.836 87.3522 126.864 87.2961 124.817 85.4735C122.966 83.763 122.714 80.987 123.19 78.6316C125.293 78.1269 127.424 77.7343 129.555 77.2296C129.471 78.3232 129.163 79.4448 129.415 80.5384C129.836 81.7441 131.406 81.5759 132.415 81.4076C134.21 81.0431 134.322 78.7438 133.846 77.3418C132.78 75.0985 130.705 73.6124 129.079 71.8178C127.228 69.7989 125.518 67.3033 125.574 64.4432C125.462 61.499 126.892 58.3865 129.527 56.9565ZM140.463 87.1278C141.865 76.7529 143.267 66.35 144.697 55.9751C147.053 55.9751 149.408 55.9751 151.791 55.9751C150.389 66.35 148.987 76.7529 147.585 87.1278C145.202 87.1278 142.846 87.1278 140.463 87.1278ZM152.857 55.9751C158.072 55.9751 163.288 55.9751 168.503 55.9751C168.167 58.022 167.887 60.0689 167.55 62.1159C164.718 62.1159 161.858 62.1159 159.026 62.1159C158.773 64.2469 158.521 66.35 158.297 68.5091C160.596 68.3969 162.923 68.5652 165.251 68.453C164.998 70.556 164.662 72.659 164.381 74.7621C162.054 74.7621 159.727 74.7621 157.427 74.7621C157.119 76.8651 156.811 78.9681 156.502 81.0711C159.334 81.0431 162.166 81.0711 165.026 81.0711C164.802 83.1181 164.522 85.137 164.297 87.1839C159.082 87.212 153.866 87.212 148.651 87.1839C150.025 76.781 151.483 66.378 152.857 55.9751ZM189.478 56.0031H205.124C204.816 58.05 204.479 60.097 204.199 62.1439H195.674C195.506 63.574 195.338 65.004 195.198 66.4341C192.814 66.5182 190.459 66.5182 188.076 66.4621C188.58 62.9571 189.057 59.4801 189.478 56.0031ZM87.7192 63.7703C89.7942 63.7703 91.8412 63.7703 93.8881 63.7703C93.103 64.0507 92.3739 64.4152 91.6449 64.8078C91.2523 67.2753 90.8317 69.7428 90.4391 72.2104C91.8972 74.6779 94.3928 76.1641 96.5239 77.9867C97.4212 78.7438 98.4306 79.6691 98.3746 80.959C98.4306 81.7721 98.1222 82.7816 97.2249 82.9779C96.3276 83.1742 95.2621 83.2583 94.533 82.6414C93.8601 81.7161 93.9722 80.5103 93.8601 79.4448C92.402 79.613 90.9439 79.7813 89.5138 80.0056C89.626 81.7721 89.7662 83.7069 91 85.1089C91.6729 85.9221 92.7104 86.2866 93.6918 86.6231C90.355 86.6512 87.0463 86.6512 83.7375 86.6231C83.0365 82.1367 82.3355 77.6783 81.6064 73.1918C80.9054 77.6783 80.1484 82.1367 79.4193 86.6231C77.9332 86.6231 76.4751 86.6231 74.9889 86.6231C73.9234 79.0242 72.7738 71.4253 71.7363 63.7983C73.1102 63.7983 74.4842 63.7983 75.8862 63.7983C76.5031 68.2287 77.092 72.659 77.5967 77.1174C78.2697 72.6871 79.0267 68.2567 79.7558 63.7983H83.8777C84.5507 68.2287 85.1395 72.659 85.8405 77.0614C86.4013 72.603 87.0463 68.2006 87.7192 63.7703ZM98.2344 63.7703C99.9729 63.7983 101.711 63.7703 103.478 63.7703C103.478 71.3692 103.478 78.9961 103.478 86.6231C101.824 86.6231 100.169 86.6231 98.5148 86.5951C100.057 86.2586 101.571 85.4174 102.188 83.8752C103.085 81.6039 102.917 78.7718 101.319 76.837C99.4962 74.5097 96.8043 73.0796 94.7574 70.9205C93.9161 70.0513 93.7479 68.2847 94.9256 67.6398C95.7388 67.3033 96.8043 67.2753 97.5334 67.8361C98.0661 68.3969 98.0381 69.2381 98.2063 69.9391C99.6364 69.7989 101.066 69.6587 102.496 69.5466C102.244 68.0324 102.02 66.35 100.898 65.1723C100.197 64.3871 99.1877 64.0787 98.2344 63.7703ZM2 63.7703C4.55167 63.8263 7.13138 63.6581 9.68305 63.8824C11.2533 63.9946 12.9638 64.6956 13.6648 66.2098C14.6742 68.2848 14.4219 70.6682 14.3377 72.9114C14.2536 74.6499 13.3002 76.2482 11.7861 77.1455C12.459 79.8093 13.2161 82.4451 13.8891 85.1089C15.207 77.9867 16.5529 70.8925 17.8708 63.7703C19.4691 63.7703 21.0674 63.7703 22.6377 63.7703C23.9836 70.8925 25.3856 78.0147 26.6194 85.165C26.8157 78.0708 26.6474 70.9486 26.7035 63.8263C28.1336 63.8263 29.5917 63.8263 31.0217 63.8263C31.0217 71.4253 31.0217 79.0242 31.0217 86.6512C28.2457 86.6512 25.4417 86.6512 22.6657 86.6512C22.4133 85.2772 22.161 83.8752 21.9086 82.5012C20.8151 82.5012 19.6934 82.5012 18.5999 82.5012C18.3195 83.8752 18.0951 85.2491 17.8428 86.6512H9.90737C9.12224 83.6508 8.30907 80.6786 7.52394 77.6783C7.13138 77.6783 6.73881 77.6783 6.37429 77.6783C6.37429 80.6786 6.37429 83.6789 6.37429 86.6792H2C2 79.0803 2 71.4813 2 63.8824M6.31821 67.3875C6.31821 69.6587 6.29017 71.93 6.31821 74.2013C7.52394 74.0891 9.40264 74.6499 9.96345 73.2198C10.1878 71.6776 10.1878 70.1074 9.96345 68.5652C9.5148 66.9949 7.52394 67.4716 6.31821 67.3875ZM20.1982 70.6401C19.9458 73.5002 19.357 76.3043 18.9363 79.1363H21.5721C21.0674 76.3043 20.9272 73.4161 20.1982 70.6401ZM32.1433 63.7983C33.8818 63.8544 35.6203 63.7142 37.3308 63.8824C38.4524 67.4716 39.3777 71.1449 40.5274 74.734C40.6396 71.0888 40.5554 67.4435 40.5835 63.7983C41.9574 63.7983 43.3314 63.7983 44.6774 63.7983C44.7054 71.3972 44.6774 78.9961 44.6774 86.6231H40.4713C39.0693 82.1086 37.6673 77.5941 36.2653 73.1077C36.2092 77.6222 36.2372 82.1367 36.2372 86.6512H32.1433C32.1433 78.9962 32.1433 71.3972 32.1433 63.7983ZM45.7709 63.7983C48.7712 63.8824 51.7996 63.5459 54.7438 64.0787C56.5104 64.4432 57.8563 65.9013 58.0526 67.6959C58.333 69.9952 58.5293 72.9675 56.258 74.3415C57.7161 75.0705 58.361 76.6968 58.361 78.2671C58.361 80.3701 58.6414 82.6694 57.5198 84.5762C56.7347 85.9221 55.1084 86.3988 53.6503 86.511C51.0425 86.7072 48.4067 86.567 45.799 86.6231C45.799 78.9961 45.799 71.3972 45.7709 63.7983ZM50.1172 67.1351C50.1172 69.0418 50.1172 70.9205 50.1172 72.7992C51.2668 72.659 53.0053 73.1918 53.6783 71.93C53.9867 70.7523 53.9307 69.4905 53.7624 68.3128C53.3138 66.7706 51.3229 67.2753 50.1172 67.1351ZM50.1172 76.1921C50.1172 78.5195 50.1172 80.8468 50.1172 83.2022C51.351 83.09 53.1736 83.5948 53.8465 82.2488C54.2111 80.6505 54.0989 78.9401 53.9307 77.3137C53.3979 75.7435 51.351 76.3323 50.1172 76.1921ZM62.4549 64.0507C65.3431 63.2655 69.2407 63.3216 71.1194 66.0415C71.9606 67.3875 72.1008 69.0138 72.1008 70.556C72.0727 73.8087 72.1008 77.0333 72.1008 80.286C72.0447 82.0525 71.6802 83.9873 70.3062 85.2211C68.792 86.5951 66.661 86.8194 64.6981 86.7072C62.9596 86.6231 61.0809 86.0343 60.0434 84.5481C58.7816 82.8377 58.8097 80.6225 58.8377 78.5755C58.8938 75.3229 58.7256 72.0982 58.9218 68.8456C59.034 66.7425 60.3519 64.6956 62.4549 64.0507ZM64.3897 67.5837C63.212 68.0043 63.212 69.4624 63.212 70.528C63.2681 74.1171 63.0998 77.7063 63.2961 81.2955C63.3802 83.2022 65.988 83.5667 67.1657 82.4451C67.7545 81.7441 67.7826 80.7907 67.7826 79.9495C67.7826 76.6968 67.7826 73.4722 67.7826 70.2195C67.7545 69.3503 67.6704 68.2848 66.8853 67.752C66.1002 67.3594 65.2029 67.3033 64.3897 67.5837ZM120.751 64.4713C120.835 63.9946 121.255 63.8263 121.62 63.6301C121.76 68.5091 121.648 73.3881 121.676 78.2671C121.648 81.1553 121.76 84.0154 121.62 86.9035C119.881 82.8657 118.536 78.6597 116.937 74.5938C118.199 71.2009 119.461 67.8081 120.751 64.4713ZM187.29 71.8178C192.141 70.7523 196.964 69.6868 201.815 68.5932C201.535 70.6682 201.254 72.7151 200.946 74.7901C198.647 74.8181 196.319 74.734 194.02 74.8181C193.628 76.8931 193.403 78.9962 193.067 81.0711C195.899 81.0711 198.731 81.0711 201.591 81.0711C201.339 83.1181 201.086 85.137 200.862 87.1839C195.646 87.1839 190.431 87.1839 185.215 87.1839C185.888 82.0806 186.589 76.9492 187.29 71.8178Z" fill="white"/>
<path d="M23.1144 56.0593H24.2921C24.937 57.1529 25.582 58.2464 26.2269 59.34C26.8718 58.2464 27.5448 57.1529 28.1617 56.0593H29.3394C29.3394 57.5174 29.3394 58.9755 29.3394 60.4055H28.2458C28.2458 59.6204 28.2458 58.8353 28.2458 58.0221C27.7691 58.8072 27.3205 59.5924 26.8438 60.3775H25.5259C25.0772 59.5924 24.6006 58.8072 24.1519 58.0221C24.1519 58.8072 24.1519 59.5924 24.1519 60.3775L23.0583 60.4055C23.0583 58.9474 23.0583 57.4893 23.0583 56.0312M31.2742 56.0312C33.0407 56.0312 34.8353 56.0312 36.6018 56.0312L36.4616 57.1809C35.0876 57.1809 33.7137 57.1809 32.3677 57.1809C32.3677 57.8819 32.3677 58.5549 32.3677 59.2559C33.7137 59.2559 35.0876 59.2559 36.4336 59.2559C36.4897 59.6204 36.5457 60.013 36.6018 60.3775C35.1998 60.3494 33.7697 60.4336 32.3677 60.3775C31.8069 60.4336 31.3302 60.013 31.3022 59.4802C31.3022 59.4802 31.3022 59.4802 31.3022 59.4522C31.2181 58.3025 31.3022 57.1528 31.2742 56.0312ZM66.605 58.7512C65.2871 58.639 65.2871 56.1995 66.605 56.0593C68.063 55.9752 69.5211 56.0593 70.9792 56.0312C70.9512 56.3116 70.8671 56.9005 70.839 57.1809C69.4651 57.1809 68.1191 57.1809 66.7452 57.1809V57.6295C67.9509 57.6576 69.1286 57.5735 70.3343 57.6856C71.2316 58.1903 71.2597 59.7886 70.3343 60.2653C68.8482 60.4616 67.306 60.2934 65.8198 60.3494C65.8759 59.9569 65.9039 59.5924 65.96 59.2278C67.362 59.0876 68.9043 59.5643 70.1941 58.9194C68.9884 58.6951 67.7826 58.8633 66.605 58.7512ZM107.768 63.546C108.245 63.7143 108.581 64.1068 108.693 64.5835C109.927 67.8923 111.189 71.201 112.451 74.5378C110.881 78.6317 109.507 82.8097 107.796 86.8756C107.684 79.1084 107.712 71.3413 107.768 63.546Z" fill="white"/>
</svg>
