<svg width="140" height="140" viewBox="0 0 140 140" fill="none" xmlns="http://www.w3.org/2000/svg">
<path d="M137.592 28.1277L32.0893 0.110677C30.3558 -0.3513 28.5897 0.67486 28.1277 2.40829L0.110677 107.911C-0.3513 109.644 0.67486 111.41 2.40829 111.872L107.911 139.889C109.644 140.351 111.41 139.325 111.872 137.592L139.889 32.0893C140.351 30.3558 139.325 28.5897 137.592 28.1277ZM84.8936 61.9256L78.9247 84.3949C78.8307 84.7505 78.426 84.9836 78.0703 84.8896L55.601 78.9206C55.2454 78.8266 55.0123 78.4219 55.1064 78.0662L61.0753 55.5969C61.1693 55.2413 61.574 55.0082 61.9297 55.1023L84.399 61.0712C84.7546 61.1693 84.9877 61.5699 84.8936 61.9256Z" fill="url(#paint0_linear_19_313)"/>
<defs>
<linearGradient id="paint0_linear_19_313" x1="60.8479" y1="133.082" x2="79.1505" y2="6.9183" gradientUnits="userSpaceOnUse">
<stop stop-color="#92A3B0"/>
<stop offset="0.336" stop-color="#A3B5C4"/>
<stop offset="0.686" stop-color="#AEC2D1"/>
<stop offset="1" stop-color="#B2C6D6"/>
</linearGradient>
</defs>
</svg>
