<svg width="132" height="140" viewBox="0 0 132 140" fill="none" xmlns="http://www.w3.org/2000/svg">
<path opacity="0.3" d="M65.8945 140C96.2216 140 120.807 136.312 120.807 131.763C120.807 127.214 96.2216 123.526 65.8945 123.526C35.5674 123.526 10.9824 127.214 10.9824 131.763C10.9824 136.312 35.5674 140 65.8945 140Z" fill="black"/>
<path d="M0 3.47492V43.3713C0 46.4162 1.00215 49.3787 2.85543 51.7975L43.0071 104.302C44.3168 106.018 46.354 107.025 48.5148 107.025H81.6268C84.5234 107.025 86.1433 103.687 84.3505 101.411L6.19134 1.32785C4.1541 -1.25576 0 0.182936 0 3.47492Z" fill="#FD3C4F"/>
<path opacity="0.3" d="M6.19134 1.32785C4.1541 -1.25576 0 0.182936 0 3.47492V43.3685C0 46.4162 1.00215 49.3787 2.85543 51.8003L24.0625 79.5309C30.0863 74.9265 31.234 66.3108 26.6269 60.287L14.8537 44.8457C14.1234 43.8875 13.728 42.7178 13.728 41.5153V10.9787L6.19134 1.32785Z" fill="white"/>
<path d="M77.6209 63.0298L125.578 1.36074C127.599 -1.26131 131.789 0.171895 131.789 3.48035V45.5979C131.789 46.968 131.383 48.3078 130.625 49.4445L119.865 65.531C118.577 67.4584 116.411 68.6171 114.094 68.6171H80.3693C77.4864 68.6171 75.8582 65.3086 77.6209 63.0298Z" fill="#FD3C4F"/>
<path opacity="0.15" d="M131.789 45.6061V35.667C126.971 35.667 122.089 37.5093 119.211 41.8117L112.098 52.4481C111.079 53.9719 109.366 54.8862 107.534 54.8862H98.8418C91.2612 54.8862 85.1138 61.0309 85.1138 68.6142H114.094C116.411 68.6142 118.572 67.4583 119.859 65.5337L130.622 49.4417C131.383 48.3078 131.789 46.9734 131.789 45.6061Z" fill="black"/>
<path d="M9.60962 26.0574V37.0399" stroke="white" stroke-width="6" stroke-miterlimit="10" stroke-linecap="round" stroke-linejoin="round"/>
</svg>
